<?xml version="1.0" standalone="no"?>
<!DOCTYPE svg PUBLIC "-//W3C//DTD SVG 20010904//EN"
 "http://www.w3.org/TR/2001/REC-SVG-20010904/DTD/svg10.dtd">
<svg version="1.0" xmlns="http://www.w3.org/2000/svg"
 width="1024.000000pt" height="1024.000000pt" viewBox="0 0 1024.000000 1024.000000"
 preserveAspectRatio="xMidYMid meet">
<metadata>
Created by potrace 1.14, written by Peter Selinger 2001-2017
</metadata>
<g transform="translate(0.000000,1024.000000) scale(0.100000,-0.100000)"
fill="#000000" stroke="none">
<path d="M0 5120 l0 -5120 1721 0 1721 0 -30 25 c-17 14 -36 25 -44 25 -7 0
-14 9 -15 19 -1 10 -14 33 -30 49 -15 17 -35 40 -43 52 -11 16 -29 22 -70 26
-36 3 -58 10 -65 21 -5 9 -29 36 -53 61 -35 36 -42 50 -37 69 4 18 2 24 -7 20
-7 -2 -20 2 -29 9 -9 8 -33 16 -54 17 -22 2 -41 9 -43 15 -2 7 -8 10 -12 7 -5
-3 -6 5 -3 17 3 13 7 35 10 50 6 33 23 27 23 -8 0 -13 5 -24 10 -24 6 0 10 8
10 18 1 16 1 16 11 -1 7 -12 17 -16 31 -11 24 7 38 -9 38 -48 0 -33 29 -39 37
-8 6 22 11 24 33 10 10 -6 15 -27 15 -64 0 -66 10 -81 20 -29 9 47 12 53 29
47 8 -3 17 -28 21 -57 7 -55 8 -55 41 0 11 17 13 16 24 -12 7 -16 13 -42 14
-58 1 -18 5 -25 14 -22 8 3 19 5 25 5 8 0 7 4 -2 9 -8 5 -11 16 -7 26 11 28
31 2 46 -60 14 -60 40 -76 40 -25 0 17 4 30 8 30 10 0 32 -45 32 -65 0 -22 22
-29 35 -11 17 23 43 10 47 -22 4 -33 30 -36 38 -4 9 38 39 6 42 -45 1 -23 5
-40 10 -37 4 3 8 0 8 -5 0 -8 505 -11 1682 -11 1283 0 1679 3 1670 12 -13 13
-79 39 -104 41 -10 1 -18 7 -18 14 0 7 -4 13 -8 13 -12 0 -34 49 -27 60 6 10
-29 32 -38 24 -9 -9 -80 16 -106 37 -16 13 -24 29 -23 49 0 17 -4 30 -9 30 -9
0 -13 -15 -10 -34 1 -5 -4 -4 -12 2 -8 7 -16 10 -18 7 -3 -2 -5 4 -5 14 0 10
6 23 13 30 8 7 13 8 13 1 0 -15 27 -12 55 6 24 16 25 16 25 -9 0 -37 20 -44
41 -16 l18 24 17 -43 c19 -46 44 -56 44 -17 0 26 7 29 34 19 11 -4 17 -28 22
-85 4 -52 11 -78 18 -76 6 2 12 14 12 27 1 13 7 26 13 28 6 2 11 11 12 20 0 9
10 -11 21 -45 23 -66 32 -71 43 -23 11 48 45 33 45 -20 0 -35 44 -33 51 3 1 4
3 12 4 17 1 6 3 13 4 17 0 4 6 2 12 -4 10 -10 22 -70 21 -105 -1 -17 84 -18
1559 -18 l1559 0 0 3920 0 3920 -270 0 -270 0 0 30 0 30 270 0 270 0 0 33 0
34 -308 6 c-169 3 -484 3 -700 0 l-392 -6 0 35 c0 37 -14 48 -67 48 -19 0 -23
6 -23 30 0 29 1 30 48 30 55 0 62 4 55 29 -4 17 -21 20 -154 26 -133 6 -149 9
-154 26 -5 14 -16 19 -45 19 -35 0 -39 3 -42 28 -3 25 -7 27 -55 30 l-53 3 0
44 c0 24 -4 46 -9 50 -6 3 -32 7 -58 9 -40 4 -49 8 -53 28 -5 18 -14 24 -45
28 -35 4 -40 9 -43 33 -2 15 -8 27 -14 27 -6 0 -8 9 -5 19 4 15 -2 22 -24 30
-16 5 -29 13 -29 18 0 9 91 93 101 93 9 0 19 -26 19 -51 0 -16 7 -19 51 -19
l50 0 -3 32 c-3 30 -7 34 -50 43 l-46 10 24 28 c41 48 24 107 -32 107 -24 0
-44 -17 -75 -62 -9 -13 -29 -30 -45 -38 -16 -8 -44 -27 -63 -43 -31 -26 -39
-28 -100 -26 -87 4 -91 6 -91 41 l0 31 50 -6 c46 -6 50 -4 50 15 0 19 4 20 63
16 34 -3 69 -7 77 -9 10 -3 15 4 15 21 l0 25 -135 3 c-102 2 -138 6 -146 16
-5 8 -28 16 -50 18 -38 3 -39 4 -42 46 -3 41 -4 42 -37 42 l-34 0 -7 59 c-5
51 -10 60 -28 63 -23 3 -22 0 -31 121 -6 83 -8 88 -28 85 -15 -2 -23 -12 -27
-33 -9 -55 -25 -31 -28 42 -3 65 -5 72 -25 75 l-22 3 4 202 c2 145 0 207 -8
217 -8 9 -11 44 -9 98 l3 83 30 0 c29 0 30 -2 40 -65 9 -59 12 -65 32 -62 18
3 23 -3 29 -32 5 -29 11 -36 29 -36 18 0 24 -6 27 -27 2 -20 9 -28 23 -28 30
0 45 -13 45 -41 0 -19 5 -24 24 -24 19 0 25 -7 30 -35 6 -30 11 -35 36 -35 24
0 29 -5 32 -27 2 -22 9 -29 33 -33 25 -4 31 -10 33 -37 3 -28 7 -32 35 -35 28
-3 32 -7 35 -35 3 -29 7 -33 32 -33 21 0 29 -6 34 -25 6 -23 11 -25 57 -25 77
0 89 -10 89 -75 l0 -55 -35 0 c-32 0 -35 2 -35 30 l0 30 -66 0 -65 0 3 -32 c3
-32 5 -33 53 -36 52 -3 65 -13 65 -49 0 -16 6 -23 19 -23 27 0 51 -26 51 -55
0 -20 6 -24 38 -27 34 -3 37 -6 40 -35 3 -31 6 -33 41 -33 68 0 101 -11 101
-32 0 -31 18 -55 45 -62 15 -4 30 -17 35 -32 6 -14 23 -29 39 -35 16 -6 32
-17 35 -25 3 -7 12 -11 19 -8 8 3 17 -1 20 -9 9 -25 62 -30 234 -22 152 7 163
8 163 27 0 18 -7 19 -165 16 l-165 -3 0 93 c0 50 -4 92 -9 92 -6 0 -11 -14
-13 -32 -2 -25 -9 -33 -30 -39 -15 -4 -29 -4 -32 -1 -3 3 -6 50 -6 104 l0 98
-40 0 -40 0 0 -55 c0 -40 4 -57 15 -61 9 -4 15 -19 15 -35 0 -24 -4 -29 -24
-29 -21 0 -25 5 -28 38 -3 34 -6 37 -33 37 -24 0 -31 5 -33 23 -3 21 -7 22
-53 16 l-49 -7 0 37 c0 33 -2 36 -30 36 -28 0 -30 3 -30 35 l0 35 50 0 50 0 0
59 0 59 34 6 c38 7 46 23 46 99 0 46 1 47 30 47 l30 0 0 -108 c0 -66 -4 -112
-11 -119 -19 -19 0 -33 46 -33 40 0 44 -2 47 -27 3 -24 8 -28 41 -31 39 -3 41
-8 38 -64 -1 -26 2 -28 36 -29 21 0 54 -3 73 -7 29 -6 35 -11 35 -32 0 -20 7
-27 35 -36 29 -10 35 -16 35 -40 0 -29 -1 -29 -67 -32 -60 -3 -68 -5 -68 -22
0 -19 8 -20 135 -20 113 0 135 2 135 15 0 11 -12 15 -45 15 l-45 0 0 40 c0 32
-4 40 -18 40 -15 0 -22 13 -31 55 -11 48 -16 55 -36 55 -18 0 -24 6 -27 28 -3
26 -5 27 -75 30 l-73 3 0 39 0 40 -49 0 c-28 0 -52 4 -55 8 -3 5 -6 71 -7 148
l-1 139 23 0 c20 0 24 -6 27 -37 3 -36 5 -38 38 -38 l34 0 0 -60 0 -60 35 0
c31 0 35 -3 35 -25 0 -22 4 -25 34 -25 30 0 35 -3 38 -27 3 -25 8 -28 44 -31
41 -3 42 -4 49 -48 l6 -44 46 0 c36 0 46 -4 50 -20 3 -13 14 -20 28 -20 30 0
55 -25 55 -56 0 -22 4 -24 49 -24 51 0 61 -9 61 -51 0 -16 7 -19 49 -19 47 0
50 -2 56 -30 6 -29 8 -30 66 -30 l59 0 0 -40 0 -40 130 0 c123 0 130 -1 130
-20 0 -16 7 -20 31 -20 24 0 32 -6 40 -30 10 -26 16 -30 50 -30 38 0 39 -1 39
-35 l0 -35 85 0 c81 0 85 -1 85 -22 0 -54 10 -68 50 -68 39 0 50 -11 50 -51 0
-16 8 -19 43 -20 73 -2 102 -12 105 -37 2 -14 10 -22 23 -22 19 0 19 18 19
960 l0 960 -2496 0 c-2272 0 -2496 -1 -2490 -16 3 -9 6 -31 6 -50 l0 -34 49 0
c47 0 50 -2 53 -27 3 -24 8 -29 43 -33 36 -5 40 -8 48 -42 9 -37 10 -38 53
-38 l44 0 0 -42 c0 -73 8 -88 46 -88 29 0 34 -4 42 -32 7 -28 13 -33 34 -30
24 2 27 -1 33 -48 6 -46 9 -50 35 -50 15 0 41 -3 59 -6 28 -6 31 -11 37 -55
l7 -49 48 0 c44 0 49 -2 49 -22 0 -32 11 -45 40 -49 20 -3 26 -11 28 -36 3
-30 6 -33 38 -33 33 0 34 -1 34 -40 0 -39 1 -40 35 -40 33 0 40 -7 36 -37 -1
-8 19 -13 61 -15 l63 -3 3 -42 3 -43 55 0 54 0 0 -40 c0 -35 3 -40 23 -40 32
0 60 -23 56 -46 -3 -15 -14 -20 -47 -22 -36 -3 -43 -7 -48 -30 -10 -48 -13
-52 -34 -52 -16 0 -20 -7 -20 -31 0 -26 -6 -33 -40 -47 -32 -14 -41 -24 -46
-49 -5 -25 -12 -33 -35 -38 -16 -4 -33 -4 -38 0 -6 3 -13 -11 -17 -31 -5 -28
-14 -39 -34 -47 -15 -6 -32 -23 -37 -38 -8 -20 -19 -28 -39 -31 -27 -3 -29 -7
-34 -53 -5 -48 -6 -50 -37 -53 -28 -3 -33 -7 -33 -28 0 -29 -5 -32 -95 -41
-62 -7 -70 -11 -73 -30 -3 -17 -12 -24 -40 -28 -20 -3 -53 -14 -72 -24 -19 -9
-43 -16 -52 -13 -21 4 -24 32 -4 32 8 0 24 8 36 18 21 17 22 22 11 52 -15 45
-6 50 102 50 86 0 87 0 87 25 l0 25 -105 0 -104 0 -7 34 c-5 31 -10 35 -43 38
-34 3 -36 5 -39 41 -3 36 -4 37 -43 37 -39 0 -39 0 -39 39 0 43 -10 51 -66 51
-33 0 -34 1 -34 39 0 39 -1 40 -37 43 -36 3 -38 5 -43 43 -4 34 -9 40 -31 43
-28 3 -39 23 -39 73 0 24 -3 25 -47 25 -44 -1 -47 0 -55 33 -8 31 -12 33 -40
27 -17 -3 -37 -6 -44 -6 -8 0 -14 -10 -14 -25 0 -21 5 -25 30 -25 26 0 31 -5
37 -30 5 -26 10 -30 39 -30 29 0 34 -3 34 -24 0 -39 10 -54 30 -49 14 4 22 -2
30 -21 5 -14 16 -26 25 -26 10 0 15 -10 15 -34 0 -30 3 -35 28 -38 22 -2 28
-9 32 -38 4 -31 9 -35 37 -38 24 -2 33 -9 35 -25 2 -17 10 -22 32 -22 24 0 31
-5 36 -25 4 -19 13 -26 38 -28 29 -3 32 -6 32 -38 0 -33 1 -34 39 -34 48 0 55
-9 47 -65 -7 -41 -9 -44 -46 -50 -36 -6 -40 -10 -40 -36 0 -29 -1 -29 -55 -29
-54 0 -55 0 -55 -30 0 -29 -2 -30 -45 -30 -38 0 -45 3 -45 20 0 17 -7 20 -45
20 -32 0 -47 5 -54 18 -7 14 -18 17 -45 14 l-36 -4 0 60 c0 59 1 61 28 64 24
3 27 7 30 46 l3 42 -35 0 -35 0 -3 -57 -3 -58 -38 -3 -38 -3 7 119 c6 105 5
120 -10 125 -10 4 -16 18 -16 36 0 25 -4 30 -27 33 -28 3 -28 3 -31 88 l-3 86
-34 -4 c-31 -4 -35 -8 -35 -33 0 -22 -6 -32 -25 -39 -17 -6 -27 -20 -31 -40
-5 -25 -11 -30 -34 -30 -46 0 -60 -10 -60 -41 0 -28 -1 -29 -54 -29 l-55 0 -3
-37 c-3 -38 -3 -38 -50 -41 -45 -3 -48 -5 -48 -31 0 -32 -18 -41 -87 -41 -31
0 -43 -4 -43 -14 0 -8 5 -18 10 -21 24 -15 5 -22 -66 -28 -42 -3 -81 -10 -87
-16 -5 -5 -10 -27 -11 -48 l-1 -38 -105 -5 c-87 -4 -105 -8 -108 -22 -3 -14
13 -16 141 -20 155 -3 173 -9 179 -56 2 -21 9 -28 31 -30 35 -4 35 -27 -1 -69
l-27 -31 -600 -3 -600 -3 -3 25 c-3 23 1 27 35 32 21 4 64 7 95 7 51 0 57 2
60 23 2 16 11 23 31 25 16 2 31 10 34 18 3 8 16 14 29 14 17 0 24 6 24 19 0
15 10 20 55 26 55 6 55 7 55 41 0 31 3 34 30 34 23 0 30 -4 30 -20 0 -18 7
-20 79 -20 70 0 79 -2 84 -20 7 -26 47 -26 142 -1 62 16 70 21 73 45 2 19 9
26 25 27 12 1 27 2 32 4 6 1 20 3 33 3 15 2 22 8 22 22 0 15 9 22 30 27 23 4
30 11 30 29 0 19 6 23 38 26 32 3 37 7 40 31 3 24 7 27 42 27 35 0 38 2 44 34
6 33 7 33 51 28 40 -4 45 -3 45 16 0 17 7 21 38 24 29 2 38 8 40 25 2 16 11
23 35 25 28 3 32 7 35 36 3 31 5 32 48 32 32 0 44 4 44 15 0 8 5 15 10 15 6 0
15 11 20 24 6 18 19 26 49 31 40 7 41 8 41 45 0 40 13 50 68 50 18 0 22 6 22
33 0 17 3 49 6 70 l7 37 69 0 c66 0 68 1 58 20 -6 12 -21 20 -35 20 -23 0 -25
4 -25 45 l0 45 -39 0 c-43 0 -51 -10 -51 -66 0 -29 -3 -34 -25 -34 -20 0 -25
-6 -31 -34 -5 -30 -10 -35 -37 -38 -26 -2 -33 -8 -37 -32 -3 -16 -10 -31 -16
-33 -15 -5 -23 58 -16 125 l5 52 38 0 38 0 3 73 3 72 32 3 c28 3 32 7 35 35 2
27 8 33 33 37 28 5 30 8 33 58 3 48 5 52 28 52 l24 0 0 149 c0 82 3 156 6 165
4 11 19 16 44 16 l38 0 7 65 7 65 39 0 39 0 0 44 c0 24 3 51 6 60 6 15 -226
16 -2585 16 l-2591 0 0 -5120z m4480 4910 l0 -30 85 0 85 0 0 -30 0 -30 -330
0 -330 0 0 30 0 30 204 0 204 0 6 30 c5 27 10 30 41 30 32 0 35 -2 35 -30z
m4414 -4 c6 -33 10 -35 49 -38 l42 -3 3 -82 3 -83 114 0 114 0 3 48 c3 47 3
47 38 47 35 0 35 0 40 -50 l5 -50 278 -3 c173 -1 277 -6 277 -12 0 -6 36 -10
85 -10 82 0 85 -1 91 -25 4 -14 5 -27 3 -28 -2 -1 -538 -1 -1191 1 -1098 3
-1186 5 -1190 20 -10 38 0 42 118 42 l114 0 0 31 c0 28 2 30 33 27 24 -2 33
-8 35 -25 2 -15 10 -23 23 -23 27 0 27 60 0 67 -20 5 -35 39 -21 48 4 2 27 1
51 -3 40 -7 44 -10 53 -47 11 -51 12 -52 35 -31 23 21 41 14 41 -15 0 -18 9
-19 224 -19 245 0 236 -2 236 61 0 27 3 29 38 29 51 0 62 14 62 82 l0 58 59 0
c33 0 63 5 66 10 3 6 19 10 34 10 25 0 30 -5 35 -34z m-7184 -285 c5 -11 10
-28 10 -39 0 -15 9 -21 40 -26 34 -5 40 -10 40 -31 0 -21 5 -25 29 -25 30 0
41 -18 41 -66 0 -27 17 -34 81 -34 42 0 49 -3 49 -19 0 -36 12 -51 40 -51 21
0 29 -6 34 -24 4 -18 14 -26 34 -28 23 -3 28 -8 32 -43 l5 -40 57 -3 57 -3 3
-42 3 -42 50 -5 c48 -5 50 -6 53 -37 3 -30 5 -32 50 -35 l47 -3 5 -50 5 -50
47 -3 c46 -3 47 -4 50 -40 3 -34 6 -37 37 -40 22 -2 35 -9 38 -22 3 -12 16
-20 37 -22 27 -3 31 -7 34 -35 3 -30 6 -33 38 -33 33 0 34 -1 34 -38 0 -32 4
-39 30 -51 17 -7 49 -15 72 -17 43 -4 58 -16 58 -46 0 -16 11 -18 95 -18 100
0 101 -1 89 -47 -5 -19 -14 -23 -43 -23 -43 0 -56 -8 -65 -37 -5 -17 -18 -25
-47 -29 -21 -4 -39 -10 -39 -14 0 -5 -13 -11 -30 -15 -23 -5 -30 -12 -30 -31
0 -30 -3 -31 -107 -38 l-83 -6 0 35 c0 35 0 35 45 35 l45 0 0 45 c0 45 0 45
35 45 31 0 35 3 35 25 0 22 -4 25 -37 25 -48 0 -67 -12 -61 -38 5 -18 1 -21
-31 -24 -32 -3 -36 -6 -39 -35 -3 -29 -7 -32 -46 -38 -72 -11 -91 -5 -94 33
-3 28 -7 32 -34 32 l-30 0 3 83 4 82 -42 3 c-37 3 -42 6 -48 32 -5 23 -12 29
-28 27 -16 -1 -23 5 -27 28 -4 24 -10 29 -27 27 -18 -3 -22 3 -25 30 -2 23 -7
32 -18 29 -37 -9 -44 -5 -53 30 -7 30 -12 35 -31 32 -21 -4 -24 0 -30 40 -6
40 -10 46 -34 49 -20 2 -30 11 -37 34 -9 27 -14 30 -50 30 l-40 -1 -3 48 -3
47 -49 0 c-53 0 -52 -2 -62 88 -2 12 -7 24 -13 25 -6 1 -12 -61 -16 -163 -3
-91 -7 -180 -8 -197 -1 -30 -4 -33 -31 -33 -24 0 -31 -5 -36 -27 -10 -38 -19
-43 -91 -43 l-63 0 0 40 0 40 -60 0 c-59 0 -60 0 -60 -29 0 -24 5 -30 29 -34
25 -5 30 -12 33 -39 l3 -33 72 0 c64 0 74 -3 88 -22 9 -13 25 -23 37 -23 11 0
22 -8 25 -20 3 -12 18 -23 37 -28 29 -8 31 -11 34 -61 l3 -52 -33 3 c-24 2
-34 8 -36 23 -9 61 -12 65 -46 65 -25 0 -35 5 -39 20 -5 19 -14 20 -176 20
-168 0 -171 0 -171 -21 0 -20 -4 -21 -50 -15 l-50 7 0 -41 0 -40 -60 0 c-57 0
-60 -1 -60 -25 0 -23 -4 -25 -44 -25 l-45 0 -3 -42 c-3 -43 -3 -43 -45 -46
-37 -3 -42 -6 -45 -30 l-3 -27 -112 -3 -113 -3 0 31 c0 30 0 30 54 30 54 0 55
0 58 32 2 20 9 34 18 35 8 1 45 5 83 8 65 6 67 7 67 35 0 25 4 29 39 35 34 6
40 11 43 33 3 26 6 27 71 30 l67 3 0 34 c0 34 1 35 39 35 24 0 41 5 44 14 3 8
21 16 39 18 l33 3 3 113 3 112 29 0 c29 0 30 1 30 50 0 28 -4 50 -10 50 -11 0
-14 88 -4 114 4 10 18 16 35 16 27 0 29 -3 29 -39 0 -73 10 -101 36 -101 20 0
24 5 24 31 0 28 2 30 33 27 28 -3 32 -6 32 -33 0 -29 2 -30 50 -35 49 -5 50
-6 53 -40 4 -35 15 -50 40 -50 10 0 12 50 10 233 l-3 232 -42 3 c-37 3 -42 6
-45 30 -2 21 -9 28 -30 30 -27 3 -27 3 -30 98 -2 53 -1 98 1 100 2 2 19 4 37
4 23 0 37 -6 44 -19z m2250 -171 c0 -33 3 -40 20 -40 21 0 40 -27 40 -59 0
-18 6 -21 39 -21 61 0 71 -7 71 -50 0 -41 11 -50 61 -50 25 0 30 -5 35 -29 6
-27 11 -30 48 -33 38 -3 41 -5 41 -33 0 -30 0 -30 -62 -33 -62 -3 -63 -3 -63
-32 0 -28 -2 -30 -40 -30 -40 0 -40 0 -40 -39 0 -43 -1 -45 -42 -55 -26 -6
-28 -4 -28 24 0 30 -1 30 -54 30 l-55 0 -3 -52 -3 -53 -82 -3 -82 -3 -7 51
c-6 44 -9 50 -31 50 -13 0 -26 -7 -29 -15 -4 -8 -12 -15 -20 -15 -11 0 -14 29
-14 155 l0 155 35 0 34 0 3 58 c3 55 4 57 36 67 30 8 32 12 32 52 l0 43 80 0
80 0 0 -40z m-615 -140 c4 -6 55 -10 121 -10 l114 0 0 -35 0 -35 -414 0 c-228
0 -421 3 -430 6 -10 4 -16 18 -16 35 l0 29 294 0 c186 0 297 4 301 10 3 6 10
10 15 10 5 0 12 -4 15 -10z m-2375 -34 c0 -37 10 -56 30 -56 32 0 50 -12 50
-32 0 -11 8 -22 20 -25 13 -3 20 -14 20 -29 0 -21 -5 -23 -62 -26 l-63 -3 -3
-46 c-2 -37 -7 -48 -23 -52 -14 -4 -19 -14 -19 -41 0 -32 -3 -36 -25 -36 l-25
0 0 133 c0 72 3 156 6 185 l7 52 43 0 c40 0 44 -2 44 -24z m3554 -102 c4 -10
16 -14 38 -12 29 3 33 0 36 -24 3 -24 0 -28 -21 -28 -25 0 -37 -21 -37 -67 0
-19 -6 -22 -42 -25 -39 -3 -43 -6 -48 -33 -4 -26 -10 -30 -40 -33 -19 -2 -40
-9 -45 -17 -6 -7 -32 -16 -58 -20 l-47 -7 0 43 c0 56 7 65 52 73 21 4 42 15
48 25 7 13 26 20 70 25 57 7 60 8 58 34 -3 54 2 82 16 82 8 0 17 -7 20 -16z
m-2559 -158 c11 -55 4 -71 -33 -74 l-32 -3 0 55 c0 55 0 56 30 56 25 0 30 -4
35 -34z m1585 -167 l0 -127 -32 -11 c-24 -9 -33 -8 -39 1 -4 6 -8 69 -8 140
l0 128 40 -2 39 -1 0 -128z m-1494 70 c-6 -29 -5 -30 23 -24 27 6 30 4 33 -22
2 -20 9 -29 26 -31 18 -3 22 -10 22 -43 0 -35 3 -39 25 -39 20 0 25 -5 25 -25
0 -21 5 -25 29 -25 27 0 30 -3 33 -37 3 -33 7 -38 38 -46 112 -27 140 -38 140
-58 0 -17 -7 -19 -75 -19 -73 0 -75 -1 -75 -24 0 -23 5 -25 48 -28 47 -3 47
-3 50 -40 3 -37 4 -38 41 -38 38 0 50 -14 51 -57 0 -15 -46 -17 -55 -3 -10 16
-42 11 -47 -7 -4 -16 -16 -18 -96 -15 l-92 3 0 80 c0 73 2 79 20 79 19 0 21 5
18 73 l-3 72 -37 3 c-36 3 -37 5 -40 45 -3 37 -6 42 -30 45 -24 3 -29 9 -34
43 -6 37 -8 39 -44 39 -37 0 -37 1 -44 46 -11 80 -9 84 25 84 30 0 31 -2 25
-31z m2512 14 c-5 -26 -38 -29 -38 -4 0 15 6 21 21 21 14 0 19 -5 17 -17z
m-348 -23 c0 -21 -4 -24 -52 -34 -25 -6 -28 -3 -28 18 0 20 6 25 33 29 17 2
35 5 40 5 4 1 7 -7 7 -18z m290 -35 c0 -20 -5 -25 -24 -25 -13 0 -31 -3 -39
-6 -10 -3 -18 2 -22 15 -9 31 2 41 46 41 35 0 39 -3 39 -25z m-2556 -37 c3
-24 7 -56 8 -73 3 -25 8 -31 30 -33 20 -2 30 -10 34 -28 4 -17 13 -24 31 -24
18 0 27 -8 34 -29 6 -16 20 -31 31 -34 20 -6 21 -11 15 -87 -4 -45 -9 -85 -12
-91 -4 -5 -19 -9 -36 -9 -52 0 -34 -16 81 -70 8 -4 15 -16 15 -26 0 -18 -11
-19 -235 -19 l-235 0 0 25 0 25 113 3 c104 2 112 4 112 22 0 19 -7 20 -110 20
l-110 0 0 35 0 35 106 0 106 0 -4 61 c-3 44 -9 64 -21 71 -15 8 -17 28 -17
138 l0 130 29 0 c27 0 30 -3 35 -42z m2451 33 c3 -5 -2 -16 -10 -24 -8 -9 -19
-27 -25 -41 -7 -20 -16 -26 -40 -26 -23 0 -30 -4 -30 -20 0 -21 -27 -40 -59
-40 -14 0 -21 -8 -23 -27 -2 -21 -8 -27 -23 -25 -11 1 -48 5 -82 9 -56 5 -63
8 -63 28 0 22 4 24 125 53 25 6 31 14 33 40 3 28 7 32 31 32 16 0 49 3 75 6
36 5 46 11 46 25 0 20 34 27 45 10z m-275 -26 c0 -22 -4 -25 -40 -25 -36 0
-40 3 -40 25 0 23 4 25 40 25 36 0 40 -2 40 -25z m797 -91 c0 -7 -6 -10 -13
-7 -7 2 -14 -4 -17 -14 -3 -12 -5 -9 -6 9 -1 20 4 26 17 25 10 0 19 -6 19 -13z
m-109 -116 l-3 -63 -51 -8 c-40 -6 -54 -13 -62 -33 -7 -13 -20 -24 -30 -24
-10 0 -22 -4 -27 -9 -6 -5 -23 -11 -40 -13 -22 -2 -31 -9 -33 -25 -2 -13 -14
-25 -33 -32 -16 -5 -29 -17 -29 -25 0 -11 -10 -16 -34 -16 -18 0 -61 -3 -95
-6 l-61 -7 0 37 0 36 70 0 c68 0 70 1 70 25 0 23 4 25 46 25 l46 0 -7 40 -7
40 70 0 71 0 3 32 c3 32 4 33 45 30 l43 -4 -6 31 c-6 29 -5 31 25 31 l32 0 -3
-62z m112 -4 c0 -14 -3 -15 -17 -3 -10 7 -20 15 -22 16 -2 2 5 3 17 3 14 0 22
-6 22 -16z m-775 -14 c0 -8 -17 -19 -40 -26 -29 -8 -41 -17 -43 -33 -2 -15
-16 -27 -42 -37 -21 -8 -40 -24 -43 -35 -4 -14 -14 -19 -41 -19 -32 0 -36 -3
-36 -25 l0 -26 -97 3 -98 3 0 35 0 35 63 9 c53 8 63 13 68 33 5 18 13 23 39
23 24 0 34 5 38 20 4 15 14 20 36 20 25 0 31 4 31 20 0 20 5 21 83 18 64 -2
82 -6 82 -18z m4029 -21 c-16 -18 -34 -17 -34 1 0 5 8 6 18 3 14 -6 15 -4 5 9
-16 19 -5 32 14 16 11 -9 11 -14 -3 -29z m-3254 -51 c-1 -34 -3 -39 -11 -26
-8 15 -3 68 7 68 2 0 4 -19 4 -42z m-3260 23 c0 -5 -7 -25 -15 -45 -13 -31
-20 -36 -48 -36 -17 0 -49 -3 -69 -6 -31 -6 -38 -11 -38 -30 0 -21 -5 -23 -57
-26 l-58 -3 -3 -37 c-2 -21 -7 -38 -12 -38 -5 0 -15 -3 -24 -6 -13 -5 -16 2
-16 35 0 36 -3 41 -22 41 -47 0 -68 12 -68 36 0 12 4 25 8 28 5 3 54 8 110 12
95 6 101 8 91 25 -5 11 -19 19 -29 19 -13 0 -20 7 -20 20 0 19 7 20 135 20 74
0 135 -4 135 -9z m6474 -7 c4 -10 1 -14 -6 -12 -15 5 -23 28 -10 28 5 0 13 -7
16 -16z m-3252 -19 c-2 -14 -6 -25 -8 -25 -2 0 -4 11 -4 25 0 14 4 25 9 25 4
0 6 -11 3 -25z m3223 4 c11 -17 -1 -21 -15 -4 -8 9 -8 15 -2 15 6 0 14 -5 17
-11z m-20 -40 c0 -19 -37 -18 -43 1 -5 13 -3 13 13 0 17 -14 18 -13 12 3 -5
13 -3 17 5 15 7 -3 13 -11 13 -19z m-69 -58 c-4 -6 -13 -11 -19 -10 -9 0 -9 2
1 6 6 2 12 9 12 15 0 6 -7 8 -15 4 -15 -6 -20 5 -8 18 10 10 37 -20 29 -33z
m-40 -28 c-7 -7 -26 7 -26 19 0 6 6 6 15 -2 9 -7 13 -15 11 -17z m-3006 -18
l0 -34 62 -3 c39 -2 63 -8 66 -16 3 -10 -18 -12 -93 -11 l-97 2 6 30 c3 16 6
38 6 48 0 14 7 19 25 19 22 0 25 -4 25 -35z m2967 0 c9 -25 -4 -29 -17 -6 -7
15 -7 21 0 21 6 0 13 -7 17 -15z m-6719 -32 l-3 -38 -62 -3 -63 -3 0 41 0 40
66 0 65 0 -3 -37z m5945 -10 c-3 -7 -9 -13 -14 -13 -11 0 -12 34 -2 43 9 10
22 -13 16 -30z m-5515 0 c-2 -11 -14 -19 -31 -21 -22 -3 -27 1 -27 17 0 17 6
21 31 21 24 0 30 -4 27 -17z m6257 -31 c-6 -7 -35 18 -35 31 0 5 9 2 20 -8 11
-10 18 -20 15 -23z m-3379 -14 c-3 -13 -6 -29 -6 -35 0 -14 -57 -17 -97 -7
-17 5 -23 14 -23 35 l0 29 66 0 c64 0 66 -1 60 -22z m2574 2 c0 -11 -4 -20
-10 -20 -5 0 -10 9 -10 20 0 11 5 20 10 20 6 0 10 -9 10 -20z m742 -30 c6 0 7
7 4 16 -6 14 -4 15 9 4 15 -12 15 -14 0 -23 -18 -9 -55 16 -54 37 0 6 7 1 16
-11 8 -13 20 -23 25 -23z m-5234 -2 c-2 -19 -10 -24 -40 -26 -33 -3 -38 -7
-38 -28 0 -13 -4 -24 -9 -24 -5 0 -16 -3 -24 -6 -8 -3 -22 2 -31 11 -20 21 -5
55 24 55 13 0 20 7 20 20 0 17 7 20 51 20 47 0 50 -2 47 -22z m2602 -28 l0
-30 -136 0 c-120 0 -135 2 -130 16 3 9 6 22 6 30 0 11 24 14 130 14 l130 0 0
-30z m1848 11 c3 -8 -1 -12 -9 -9 -7 2 -15 10 -17 17 -3 8 1 12 9 9 7 -2 15
-10 17 -17z m730 -11 c7 -11 9 -20 4 -20 -4 0 -13 9 -20 20 -7 11 -9 20 -4 20
4 0 13 -9 20 -20z m-774 -16 c10 -25 1 -27 -19 -4 -15 17 -16 20 -3 20 9 0 19
-7 22 -16z m722 -11 c16 -21 18 -37 4 -28 -13 8 -33 45 -24 45 4 0 13 -8 20
-17z m-786 -33 c0 -5 5 -9 11 -7 6 1 14 -4 16 -10 6 -16 -19 -17 -35 -1 -15
15 -16 28 -2 28 6 0 10 -4 10 -10z m745 -1 c11 -17 -1 -21 -15 -4 -8 9 -8 15
-2 15 6 0 14 -5 17 -11z m-35 -30 c0 -6 -4 -7 -10 -4 -5 3 -10 11 -10 16 0 6
5 7 10 4 6 -3 10 -11 10 -16z m-763 -14 c-4 -8 -2 -17 3 -20 4 -3 10 1 13 7 3
9 7 7 12 -5 17 -40 -23 -27 -46 15 -8 14 -6 18 7 18 10 0 14 -5 11 -15z m-27
-45 c6 -11 8 -20 6 -20 -3 0 -10 9 -16 20 -6 11 -8 20 -6 20 3 0 10 -9 16 -20z
m718 -1 c9 -13 19 -18 30 -14 13 5 14 3 5 -6 -15 -15 -39 -6 -53 20 -14 27 1
27 18 0z m-734 -58 c-7 -8 -44 32 -44 48 0 11 8 6 24 -14 13 -16 22 -32 20
-34z m719 -24 c-7 -11 -53 33 -53 50 0 9 11 3 29 -14 16 -15 26 -32 24 -36z
m-790 10 c-3 -5 -2 -7 4 -4 6 4 19 0 29 -8 18 -13 18 -14 1 -20 -22 -9 -57 20
-57 48 0 16 3 17 15 7 8 -7 12 -17 8 -23z m717 -28 c0 -9 6 -16 13 -15 15 1
23 -17 9 -22 -17 -5 -52 40 -52 67 1 25 1 25 15 7 8 -11 15 -27 15 -37z m-757
-23 c36 -33 38 -46 9 -46 -24 0 -52 31 -52 57 0 12 2 23 4 23 2 0 19 -15 39
-34z m677 -4 c0 -23 19 -42 35 -36 7 3 16 1 20 -5 10 -17 -27 -13 -53 5 -22
15 -31 54 -12 54 6 0 10 -8 10 -18z m25 -12 c3 -5 1 -10 -4 -10 -6 0 -11 5
-11 10 0 6 2 10 4 10 3 0 8 -4 11 -10z m-725 -88 c1 -3 -3 -8 -8 -10 -15 -5
-62 50 -62 72 0 16 6 13 34 -18 19 -20 35 -40 36 -44z m637 47 c-3 -11 -2 -17
2 -15 10 7 62 -29 54 -37 -11 -12 -36 -8 -55 10 -19 17 -26 79 -7 67 6 -3 9
-15 6 -25z m-692 -99 c-10 -16 -75 48 -75 74 0 16 7 12 41 -22 24 -24 38 -45
34 -52z m682 -13 c-5 -16 -67 44 -67 65 0 16 6 13 35 -18 20 -21 34 -42 32
-47z m-738 -25 c-28 -5 -73 29 -77 57 -3 19 2 18 47 -16 44 -33 48 -38 30 -41z
m636 48 c3 -11 19 -27 36 -37 35 -21 37 -33 5 -33 -27 0 -66 42 -66 71 0 25
17 24 25 -1z m-1258 -42 c13 -12 23 -24 23 -28 0 -3 -21 -16 -47 -28 -27 -12
-64 -32 -83 -44 l-35 -22 24 27 25 27 -32 -11 c-18 -6 -52 -34 -77 -62 -25
-29 -45 -48 -45 -44 0 12 31 69 45 83 9 10 178 74 193 74 3 0 -1 7 -8 15 -16
20 -73 19 -111 -1 -48 -24 -45 -9 3 20 49 31 88 29 125 -6z m-357 -8 c47 -47
46 -116 -3 -203 -27 -49 -43 -27 -16 24 32 64 19 175 -23 192 -8 3 -6 6 5 6 9
1 26 -8 37 -19z m539 11 c-14 -5 -35 -14 -47 -20 -12 -6 -22 -9 -22 -7 0 10
55 35 75 35 16 -1 14 -2 -6 -8z m1031 -32 c32 -31 40 -43 31 -52 -25 -25 -105
52 -86 83 9 14 7 15 55 -31z m-714 9 c-1 -24 58 -66 68 -49 4 6 -7 17 -25 26
-17 9 -29 18 -26 21 2 2 17 -2 33 -11 16 -8 35 -15 42 -15 19 0 14 -18 -7 -30
-31 -16 -47 -12 -80 19 -32 30 -41 61 -18 61 8 0 13 -10 13 -22z m-249 6 c-3
-3 -12 -4 -19 -1 -8 3 -5 6 6 6 11 1 17 -2 13 -5z m-17 -26 c0 -5 -11 -8 -24
-8 -13 0 -33 -3 -43 -6 -16 -6 -16 -5 1 8 20 16 66 19 66 6z m-774 -25 c30
-33 40 -67 26 -96 l-11 -22 0 23 c-1 30 -17 60 -49 95 -21 22 -23 27 -8 27 9
0 28 -12 42 -27z m108 6 c27 -22 35 -69 16 -99 -7 -11 -10 -5 -10 23 0 29 -7
46 -29 68 -34 33 -17 39 23 8z m500 0 c-3 -6 -22 -17 -41 -25 -18 -8 -31 -19
-28 -24 3 -6 1 -10 -4 -10 -20 0 -11 18 22 44 32 26 64 35 51 15z m436 -55
c43 -19 52 -34 21 -34 -53 0 -101 37 -101 77 l0 26 20 -26 c11 -14 38 -34 60
-43z m611 54 c1 -7 1 -17 0 -21 -1 -5 3 -6 7 -3 10 6 45 -28 37 -36 -3 -2 3
-4 13 -4 20 1 29 -18 10 -22 -26 -5 -83 42 -86 71 -2 15 1 27 7 27 6 0 12 -6
12 -12z m-1796 -28 c52 -25 85 -70 85 -115 0 -29 -1 -29 -19 11 -25 56 -98
106 -186 128 -11 3 1 4 27 2 25 -2 67 -14 93 -26z m773 1 c-13 -17 -27 -30
-32 -30 -9 -1 20 37 39 51 18 14 17 8 -7 -21z m140 19 c-14 -4 -31 -11 -37
-15 -6 -3 -11 -2 -11 4 0 10 23 19 55 19 14 0 12 -2 -7 -8z m158 -83 c8 -5 12
-12 9 -17 -6 -9 10 -15 68 -26 41 -7 49 -19 15 -21 -30 -3 -108 37 -108 54 0
7 -4 13 -10 13 -5 0 -10 12 -9 28 l0 27 10 -25 c6 -14 17 -29 25 -33z m654 -5
c0 -13 4 -21 8 -18 4 2 14 1 22 -5 13 -7 13 -9 1 -9 -11 0 -9 -5 5 -22 l19
-22 -25 15 c-30 19 -61 75 -53 96 8 20 23 -3 23 -35z m89 -21 c12 -7 19 -16
16 -22 -8 -12 -25 -12 -25 2 0 6 -13 22 -30 36 -16 13 -30 30 -30 35 0 6 11 0
23 -14 13 -14 34 -31 46 -37z m-1899 33 c0 -2 -11 -3 -24 -2 -14 1 -23 5 -20
9 4 7 44 0 44 -7z m881 -20 c-20 -26 -27 -22 -15 10 3 9 10 13 15 10 5 -3 9 0
9 7 0 7 3 10 6 6 4 -3 -3 -18 -15 -33z m-837 20 c9 -3 14 -10 11 -14 -6 -10
-45 -1 -45 11 0 10 12 11 34 3z m1770 -103 c20 -9 25 -16 16 -21 -17 -10 -42
-1 -74 27 -26 23 -36 50 -13 37 9 -6 9 -5 0 8 -7 8 -10 18 -7 21 4 3 16 -8 28
-26 12 -18 35 -38 50 -46z m-804 51 c0 -14 -31 -38 -79 -62 -138 -69 -239
-257 -207 -386 6 -21 9 -24 21 -14 8 7 15 19 15 26 0 8 7 14 16 14 18 0 18 -1
-15 -54 l-25 -39 -23 29 c-18 23 -23 41 -23 85 0 160 98 300 275 392 35 19 45
20 45 9z m-545 -19 c-4 -10 -8 -23 -8 -30 -1 -19 -17 -4 -17 16 0 20 8 31 23
31 5 0 6 -8 2 -17z m606 -5 c11 -21 11 -22 -4 -9 -10 7 -17 17 -17 22 0 15 9
10 21 -13z m69 12 c0 -5 -2 -10 -4 -10 -3 0 -8 5 -11 10 -3 6 -1 10 4 10 6 0
11 -4 11 -10z m-948 -30 c3 -16 1 -30 -4 -30 -4 0 -8 14 -8 30 0 17 2 30 4 30
2 0 6 -13 8 -30z m988 10 c8 -5 11 -10 5 -10 -5 0 -17 5 -25 10 -8 5 -10 10
-5 10 6 0 17 -5 25 -10z m340 0 c12 -8 9 -10 -13 -10 -74 0 -151 -91 -157
-185 -2 -25 -4 -22 -10 14 -5 32 -3 49 7 60 8 9 24 32 36 51 24 38 80 80 106
80 9 0 23 -5 31 -10z m201 -73 c-11 -5 -7 -6 9 -3 14 2 34 1 45 -4 19 -7 18
-8 -7 -20 -23 -11 -30 -10 -56 9 -20 14 -31 31 -34 54 l-4 33 31 -30 c26 -26
29 -32 16 -39z m-656 23 l30 -35 -32 29 c-18 17 -33 34 -33 40 0 5 1 7 3 5 1
-2 16 -20 32 -39z m70 15 c22 -8 31 -14 20 -14 -11 0 -31 6 -45 14 -32 18 -25
18 25 0z m-183 -42 c-11 -21 -29 -68 -40 -105 -21 -67 -94 -176 -119 -177 -15
-1 -26 37 -21 70 2 13 9 23 16 21 8 -1 11 2 7 8 -4 6 -4 19 0 28 6 14 10 12
20 -12 l13 -30 19 40 c11 21 28 62 37 91 15 45 72 120 83 109 3 -2 -4 -21 -15
-43z m674 2 c-2 -14 4 -31 12 -37 13 -10 14 -10 8 0 -4 6 -2 12 3 12 6 0 11
-9 11 -20 0 -12 6 -20 13 -18 17 3 57 -12 57 -22 0 -28 -69 3 -107 49 -15 17
-17 61 -4 61 5 0 8 -11 7 -25z m-321 5 c3 -5 -3 -10 -14 -10 -11 0 -33 -11
-49 -25 -36 -30 -64 -34 -38 -6 10 11 15 24 12 30 -3 5 0 12 6 14 23 9 77 7
83 -3z m136 -19 c-12 -12 -21 -18 -21 -14 0 10 33 44 37 39 3 -2 -5 -14 -16
-25z m-727 -7 c9 -3 16 -12 16 -19 0 -15 -27 -28 -41 -19 -5 3 -9 0 -9 -6 0
-6 -6 -10 -12 -8 -22 4 -88 -13 -88 -22 0 -5 -7 -7 -15 -4 -8 4 -22 1 -30 -6
-8 -6 -19 -9 -25 -5 -5 3 -17 -1 -25 -9 -9 -8 -22 -13 -30 -10 -8 4 -15 1 -15
-6 0 -6 -11 -10 -27 -8 -17 2 -35 -4 -46 -15 -11 -11 -27 -17 -37 -14 -11 3
-21 -1 -24 -9 -6 -16 -44 -18 -65 -5 -19 12 -4 31 25 31 13 0 24 4 24 10 0 5
18 13 40 16 22 4 40 11 40 16 0 6 14 8 30 6 20 -3 30 0 30 9 0 7 8 13 17 13
16 0 66 14 108 31 20 7 58 17 105 26 13 2 27 6 29 9 6 5 6 5 25 -2z m857 -78
c-1 -5 5 -6 14 -3 14 6 60 -31 51 -41 -6 -6 -58 24 -83 48 -25 22 -27 29 -17
55 6 14 10 10 22 -16 8 -19 14 -38 13 -43z m-321 24 c0 -5 -4 -10 -10 -10 -5
0 -10 5 -10 10 0 6 5 10 10 10 6 0 10 -4 10 -10z m-195 -9 c3 -5 2 -12 -3 -15
-5 -3 -9 1 -9 9 0 17 3 19 12 6z m449 -17 c5 -14 4 -15 -9 -4 -17 14 -19 20
-6 20 5 0 12 -7 15 -16z m-358 -19 c-37 -32 -46 -32 -16 0 13 14 28 25 34 25
6 0 -2 -11 -18 -25z m375 -29 c5 3 8 0 7 -8 -2 -9 7 -12 27 -11 23 2 26 1 11
-6 -27 -11 -4 -23 29 -15 19 5 25 2 25 -10 0 -22 -28 -20 -70 5 -48 29 -80 60
-80 77 0 9 8 5 21 -12 11 -14 25 -24 30 -20z m150 1 c-13 -13 -26 -3 -16 12 3
6 11 8 17 5 6 -4 6 -10 -1 -17z m-211 -33 c0 -8 5 -14 10 -14 6 0 10 -8 10
-17 0 -15 -4 -13 -20 7 -21 26 -27 56 -10 45 6 -3 10 -13 10 -21z m-240 -26
c0 -4 -7 -5 -15 -2 -8 4 -15 16 -15 27 0 20 0 20 15 1 8 -10 15 -22 15 -26z
m-990 17 c15 -19 12 -23 -20 -27 -14 -2 -36 -11 -49 -20 -18 -13 -29 -14 -43
-7 -10 5 -18 13 -18 18 0 15 29 33 44 28 8 -3 17 1 20 9 7 19 50 18 66 -1z
m234 -1 c9 -3 16 -12 16 -20 0 -17 -2 -17 -35 -2 -42 19 -25 39 19 22z m960
-102 c4 -7 5 -12 2 -12 -13 0 -36 62 -35 92 1 29 2 27 13 -17 7 -28 16 -56 20
-63z m-1016 51 c-4 -32 -17 -38 -43 -19 -20 15 -20 15 0 30 31 24 47 20 43
-11z m528 -52 c19 -24 34 -47 34 -50 0 -3 14 -15 30 -26 16 -11 30 -26 30 -32
0 -7 7 -13 15 -13 8 0 15 -9 15 -20 0 -12 6 -33 14 -48 7 -15 16 -43 20 -62 9
-45 99 -226 111 -223 6 1 22 4 35 8 21 5 29 -1 50 -37 14 -24 27 -47 29 -53 2
-5 13 -16 23 -24 11 -7 23 -24 28 -37 5 -13 16 -24 23 -24 14 0 50 66 43 79
-6 9 -47 235 -49 271 -1 14 -6 28 -11 31 -5 4 -6 15 -2 25 6 16 7 16 20 -2 13
-17 14 -17 9 8 -3 16 1 36 11 50 16 22 16 22 16 -23 0 -45 32 -122 67 -161 9
-10 13 -26 11 -36 -4 -13 8 -33 33 -61 31 -33 39 -50 39 -79 0 -20 3 -48 6
-62 6 -27 8 -30 -57 53 -14 18 -16 18 -22 4 -4 -11 10 -41 39 -84 24 -37 42
-73 39 -81 -4 -11 -8 -12 -20 -2 -12 10 -15 9 -15 -4 0 -9 6 -16 13 -17 10 0
10 -2 0 -6 -8 -2 -13 -22 -13 -44 0 -37 2 -40 28 -37 21 2 28 -2 30 -19 4 -26
3 -27 -34 -13 l-27 11 6 -133 c8 -160 37 -317 61 -330 9 -5 16 -17 16 -26 0
-10 6 -26 13 -37 13 -19 20 -46 51 -195 25 -116 48 -204 62 -235 7 -16 16 -42
19 -57 3 -16 12 -28 19 -28 16 0 26 -21 26 -54 0 -12 5 -27 10 -32 7 -7 10
-47 8 -100 -3 -81 -5 -89 -23 -89 -14 0 -21 -8 -23 -25 -2 -14 -15 -37 -28
-51 -16 -17 -28 -44 -32 -75 l-7 -49 -98 -3 c-62 -2 -97 1 -97 8 0 5 21 11 48
11 26 1 61 4 77 8 l30 6 -25 18 c-13 9 -33 17 -44 17 -18 0 -18 1 -3 18 27 29
69 142 72 192 3 47 1 45 -29 -41 -22 -61 -78 -125 -122 -139 -49 -17 -79 1
-111 64 -22 43 -25 59 -20 119 4 58 10 76 43 124 21 30 44 57 51 60 7 3 13 9
13 14 0 5 -17 0 -37 -11 -21 -11 -41 -16 -45 -12 -5 5 -10 30 -13 57 -3 27 -9
51 -14 54 -10 7 -27 61 -36 114 -4 23 -11 37 -20 37 -9 0 -15 9 -15 21 0 12
-8 29 -18 38 -11 9 -19 23 -19 31 0 8 -4 23 -8 33 -4 10 -3 17 3 17 7 0 4 14
-6 32 -20 39 -31 48 -48 41 -8 -3 -14 7 -16 29 -2 18 -8 33 -14 33 -6 0 -23
11 -37 25 -21 19 -27 35 -27 68 0 24 4 41 9 38 5 -4 12 8 16 25 4 18 3 34 -3
38 -6 3 -11 26 -13 51 -1 25 -8 57 -16 72 -7 15 -14 37 -14 50 -1 13 -5 3 -9
-22 -4 -25 -5 -87 -3 -137 5 -88 4 -93 -15 -93 -11 0 -22 -6 -25 -12 -3 -7 -8
12 -13 42 -6 43 -9 50 -14 30 -9 -37 -37 -38 -45 -1 -3 17 -3 35 0 41 4 7 -2
14 -14 17 -14 4 -20 12 -19 29 1 13 5 24 8 24 3 0 5 39 6 86 0 55 5 88 13 93
8 5 9 15 2 32 -7 20 -5 29 15 47 l25 21 9 -25 c12 -31 12 -35 1 -31 -9 2 -11
-3 -11 -24 0 -8 4 -8 14 0 14 12 26 3 40 -29 3 -8 5 4 3 28 -3 47 12 56 37 20
24 -34 30 -14 17 57 -6 36 -9 70 -6 75 4 6 -1 10 -9 10 -9 0 -18 11 -22 25 -3
14 -13 29 -21 34 -8 4 -16 20 -16 34 -1 18 -8 27 -18 27 -11 0 -15 7 -14 23 2
16 -3 23 -16 24 -11 1 -26 9 -34 17 -20 19 -76 30 -119 23 -44 -7 -59 4 -51
36 4 16 15 27 28 29 16 2 21 9 20 26 -2 15 3 22 13 22 14 0 16 8 11 42 -5 36
-24 61 -47 63 -14 1 -30 18 -24 26 3 5 9 7 14 4 7 -5 21 56 14 64 -2 2 -15 -4
-29 -13 -30 -20 -34 -4 -9 32 9 13 13 26 10 29 -3 4 -6 1 -6 -5 0 -7 -7 -12
-15 -12 -8 0 -15 -5 -15 -11 0 -6 -12 -20 -26 -31 -14 -11 -23 -26 -20 -33 5
-13 -12 -35 -27 -35 -5 0 -3 7 4 16 11 14 11 18 -4 29 -26 19 -21 37 27 83 44
42 124 154 148 207 11 24 14 26 17 10 2 -11 19 -39 37 -64z m575 -2 c39 -12
53 -29 24 -29 -33 0 -85 30 -94 54 -6 13 -15 27 -20 31 -6 3 -11 11 -11 18 0
6 14 -5 31 -25 18 -23 45 -42 70 -49z m61 29 c-6 -6 -22 -3 -43 7 -42 22 -42
22 -35 33 3 6 23 1 46 -11 26 -12 38 -23 32 -29z m-1471 26 c10 -13 10 -17 -1
-24 -9 -5 -20 -4 -28 3 -11 9 -13 7 -10 -9 4 -25 -37 -33 -46 -8 -4 9 -5 17
-4 18 2 1 17 9 33 18 37 22 40 22 56 2z m256 -61 c-15 -15 -18 -15 -34 -1 -10
8 -25 18 -33 21 -10 3 -7 6 8 6 12 1 25 8 29 17 5 14 9 13 27 -5 19 -20 19
-22 3 -38z m992 -9 c0 5 8 3 16 -4 8 -7 12 -17 8 -23 -3 -5 -2 -7 4 -4 5 3 28
0 51 -6 30 -9 39 -16 33 -26 -21 -33 -141 45 -141 92 0 40 15 41 21 0 3 -21 7
-34 8 -29z m-2061 13 c6 -5 12 -15 12 -21 0 -6 -7 -3 -14 7 -8 10 -17 18 -20
18 -19 -2 -26 0 -26 9 0 10 27 3 48 -13z m725 10 c3 -8 2 -18 -1 -23 -9 -12
-62 -44 -84 -51 -10 -3 -18 -10 -18 -15 0 -5 -13 -14 -30 -19 -16 -6 -30 -17
-30 -25 0 -8 -7 -14 -15 -14 -8 0 -55 -40 -104 -89 -75 -74 -92 -87 -102 -75
-11 13 -6 18 15 15 5 -1 6 4 3 12 -5 12 74 96 145 154 118 96 141 113 154 113
8 0 17 7 20 15 8 19 40 20 47 2z m289 -27 c-2 -8 -4 -23 -5 -32 -1 -20 -12
-23 -23 -7 -4 7 -11 2 -18 -12 -12 -26 -76 -46 -76 -25 0 17 46 56 56 48 4 -4
4 -1 0 5 -4 7 -1 20 6 28 17 19 64 16 60 -5z m1025 -62 c14 -14 38 -32 54 -38
16 -7 29 -16 29 -21 0 -17 -20 -19 -47 -5 -47 24 -83 70 -89 112 l-6 39 17
-30 c9 -16 28 -42 42 -57z m-883 56 c4 -9 4 -19 2 -21 -8 -8 -26 8 -26 23 0
19 16 18 24 -2z m-359 -44 c-4 -32 -23 -72 -26 -55 -9 50 -6 74 9 78 10 3 18
5 19 6 1 0 0 -13 -2 -29z m326 8 c4 -48 -15 -83 -31 -58 -14 21 -12 57 3 63
21 9 27 8 28 -5z m1128 -38 c7 -17 26 -44 43 -61 39 -39 32 -45 -15 -14 -39
27 -59 56 -63 92 -3 30 18 20 35 -17z m-1517 -7 c-3 -16 -7 -22 -10 -15 -4 13
4 42 11 42 2 0 2 -12 -1 -27z m1238 -18 c0 -6 9 -16 20 -23 11 -7 20 -18 20
-25 0 -9 -3 -9 -9 1 -4 8 -12 13 -16 12 -10 -2 -45 51 -45 69 0 17 29 -17 30
-34z m-1279 2 c-13 -13 -26 -3 -16 12 3 6 11 8 17 5 6 -4 6 -10 -1 -17z m374
-18 c9 -38 -10 -62 -19 -25 -3 14 -11 26 -17 26 -8 0 -7 5 1 15 19 22 28 18
35 -16z m1268 -105 c29 -13 59 -24 67 -24 10 0 11 -3 3 -11 -7 -7 -19 -8 -30
-4 -10 4 -24 9 -31 11 -24 5 -96 57 -129 93 -53 59 -37 70 18 13 28 -30 73
-64 102 -78z m-393 76 c6 -11 8 -20 6 -20 -3 0 -10 9 -16 20 -6 11 -8 20 -6
20 3 0 10 -9 16 -20z m120 -33 c0 -16 -35 -1 -38 16 -3 16 -1 17 17 5 12 -7
21 -17 21 -21z m-1470 -3 c0 -8 -5 -12 -10 -9 -6 4 -8 11 -5 16 9 14 15 11 15
-7z m1620 -41 c0 -6 4 -13 8 -15 12 -5 75 -118 69 -124 -15 -15 -95 107 -108
165 l-8 36 19 -25 c11 -14 20 -30 20 -37z m-1150 37 c0 -5 -2 -10 -4 -10 -3 0
-8 5 -11 10 -3 6 -1 10 4 10 6 0 11 -4 11 -10z m925 -10 c3 -5 -1 -10 -9 -10
-9 0 -16 5 -16 10 0 6 4 10 9 10 6 0 13 -4 16 -10z m-734 -43 c-13 -13 -31 0
-24 19 4 11 8 12 20 3 9 -8 10 -16 4 -22z m-35 -42 c-3 -9 -11 -13 -17 -10 -6
5 -9 0 -8 -11 4 -21 -7 -44 -22 -44 -17 0 -9 50 13 75 23 27 46 20 34 -10z
m843 -3 c10 -27 30 -108 31 -127 0 -21 -28 33 -45 85 -10 30 -20 61 -23 68 -9
25 26 0 37 -26z m-2462 -4 c15 -12 18 -42 3 -33 -6 4 -8 11 -5 16 4 5 -1 9 -9
9 -9 0 -16 5 -16 10 0 6 -9 10 -20 10 -11 0 -20 4 -20 10 0 11 46 -4 67 -22z
m940 10 c-3 -8 -6 -5 -6 6 -1 11 2 17 5 13 3 -3 4 -12 1 -19z m1472 -39 c4
-19 11 -45 16 -59 7 -21 6 -22 -6 -10 -14 15 -49 105 -49 125 0 21 32 -24 39
-56z m-1509 41 c0 -5 -5 -10 -11 -10 -5 0 -7 5 -4 10 3 6 8 10 11 10 2 0 4 -4
4 -10z m-160 -26 c0 -8 -7 -14 -15 -14 -8 0 -15 -6 -15 -14 0 -19 -26 -28 -39
-12 -12 14 4 36 26 36 7 0 13 7 13 15 0 9 6 12 15 9 8 -4 15 -12 15 -20z
m1220 -34 c0 -32 0 -32 -42 -35 -15 -1 -25 2 -22 6 3 5 1 9 -5 9 -5 0 0 11 12
25 31 35 57 33 57 -5z m-1103 -22 c-3 -7 -5 -2 -5 12 0 14 2 19 5 13 2 -7 2
-19 0 -25z m1511 7 c-3 -3 -9 2 -12 12 -6 14 -5 15 5 6 7 -7 10 -15 7 -18z
m-1700 -18 c2 -10 -3 -17 -12 -17 -9 0 -16 -5 -16 -12 0 -6 -18 -28 -40 -49
-22 -21 -40 -43 -40 -48 0 -6 -6 -8 -14 -5 -8 3 -16 -4 -20 -20 -7 -29 -18
-33 -36 -11 -15 18 -6 45 14 45 7 0 16 9 19 20 3 12 14 20 26 20 14 0 21 6 21
20 0 11 5 20 10 20 13 0 50 37 50 51 0 17 34 5 38 -14z m898 -10 c1 -15 -3
-27 -8 -27 -5 0 -8 -6 -7 -12 4 -33 -2 -78 -11 -78 -15 0 -25 71 -10 80 8 5
10 17 7 32 -4 14 -4 28 0 32 13 13 28 -1 29 -27z m944 -161 c0 -6 -7 -1 -15
10 -8 10 -15 23 -15 28 0 6 7 1 15 -10 8 -10 15 -23 15 -28z m-2020 -8 c0 -22
-17 -41 -29 -34 -19 12 -13 46 9 46 11 0 20 -6 20 -12z m1618 -21 c14 -14 26
-41 29 -66 l6 -42 -33 30 c-22 20 -50 33 -84 39 l-51 10 42 1 c23 0 53 -3 67
-9 14 -5 26 -6 26 -2 0 11 -61 32 -93 32 -33 0 -43 15 -20 30 27 16 84 4 111
-23z m647 -22 c20 -36 14 -58 -10 -34 -17 18 -31 69 -18 69 6 0 18 -16 28 -35z
m-2305 -4 c0 -22 -19 -39 -21 -19 -1 7 -4 0 -8 -17 l-7 -30 -13 23 c-11 20
-10 26 5 43 22 25 44 24 44 0z m-56 -58 c4 -10 -1 -28 -14 -45 -11 -15 -20
-31 -20 -36 0 -5 -7 -15 -16 -23 -13 -10 -17 -10 -25 2 -6 10 -3 19 9 29 10 9
17 21 14 28 -2 6 3 15 12 18 9 3 16 15 16 25 0 24 16 25 24 2z m1698 -87 c-4
-7 -8 -3 -10 12 -2 12 -7 22 -12 22 -5 0 -7 -8 -3 -17 4 -14 3 -15 -6 -7 -6 6
-9 19 -5 29 7 17 9 17 26 -5 10 -12 15 -27 10 -34z m-452 30 c0 -3 -4 -8 -10
-11 -5 -3 -10 -1 -10 4 0 6 5 11 10 11 6 0 10 -2 10 -4z m-22 -47 c12 -19 11
-20 -7 -14 -22 7 -25 -1 -21 -40 2 -16 0 -17 -14 -6 -14 12 -16 10 -16 -14 0
-23 -2 -26 -15 -15 -13 11 -15 8 -15 -13 0 -14 -5 -38 -10 -52 -9 -23 -13 -25
-25 -15 -8 7 -15 17 -15 22 0 12 111 168 119 168 4 0 12 -9 19 -21z m-1302
-44 c-9 -23 -26 -9 -26 23 0 24 1 25 16 10 10 -9 14 -24 10 -33z m1794 25 c0
-5 -5 -10 -11 -10 -5 0 -7 5 -4 10 3 6 8 10 11 10 2 0 4 -4 4 -10z m-1820 -50
c0 -10 -9 -24 -20 -30 -11 -6 -20 -19 -20 -30 0 -28 -17 -34 -30 -10 -10 18
-7 25 14 47 14 14 26 30 26 34 0 5 7 9 15 9 8 0 15 -9 15 -20z m1407 -10 c-3
-11 -1 -20 4 -20 5 0 9 -8 9 -17 0 -15 -2 -14 -15 4 -8 12 -12 28 -9 37 9 23
17 20 11 -4z m-22 -88 c-12 -13 -24 22 -12 37 10 12 13 11 15 -8 2 -13 1 -26
-3 -29z m395 33 c-7 -8 -16 -15 -21 -15 -5 0 -6 7 -3 15 4 8 13 15 21 15 13 0
13 -3 3 -15z m-305 -27 c5 -29 11 -91 14 -150 1 -10 8 -18 16 -18 17 0 31 -24
36 -60 3 -21 0 -25 -19 -23 -15 2 -21 -1 -16 -8 3 -6 16 -9 28 -7 19 4 21 1
18 -25 -3 -21 -1 -28 7 -23 6 4 11 3 11 -3 0 -5 8 -11 18 -14 9 -2 -9 -3 -41
-3 -33 1 -61 -2 -64 -6 -2 -5 -12 -8 -23 -8 -15 0 -19 9 -22 51 -3 48 -2 50
19 46 25 -5 48 15 40 35 -4 8 -6 7 -6 -4 -1 -13 -9 -18 -31 -18 -26 0 -30 4
-31 28 0 15 -3 21 -6 15 -8 -21 -20 -15 -27 12 -4 17 -1 31 9 41 20 20 19 35
-1 27 -14 -5 -14 -2 0 32 9 21 16 44 16 52 0 16 31 62 42 63 4 0 10 -15 13
-32z m-1550 2 c8 -13 -4 -50 -16 -50 -13 0 -22 27 -15 45 6 17 22 20 31 5z
m1482 -47 c-3 -10 -5 -4 -5 12 0 17 2 24 5 18 2 -7 2 -21 0 -30z m-217 -27
c-5 -14 -12 -51 -16 -83 -3 -32 -7 -59 -8 -61 -2 -1 -6 27 -10 62 -5 49 -3 75
9 103 14 32 18 35 26 21 6 -10 6 -26 -1 -42z m-1300 8 c0 -8 -7 -17 -15 -20
-8 -4 -15 -12 -15 -20 0 -8 -7 -14 -15 -14 -8 0 -15 7 -15 15 0 8 7 15 16 15
10 0 14 6 11 14 -6 16 12 38 25 30 4 -3 8 -12 8 -20z m-62 -92 c-3 -14 -6 -14
-16 6 -7 12 -10 27 -6 33 9 15 27 -16 22 -39z m-28 -26 c-13 -13 -35 7 -25 24
5 8 11 8 21 -1 10 -8 12 -15 4 -23z m-30 -31 c0 -17 -4 -23 -15 -19 -9 4 -16
-3 -21 -20 -7 -29 -22 -34 -30 -11 -6 13 42 73 59 75 4 0 7 -11 7 -25z m1641
-48 c-8 -8 -11 -7 -11 4 0 9 3 19 7 23 4 4 9 2 11 -4 3 -7 -1 -17 -7 -23z
m-222 -120 c13 -33 14 -47 3 -47 -16 0 -37 87 -33 140 l4 55 7 -60 c4 -33 13
-73 19 -88z m-1479 81 c0 -6 -7 -8 -15 -4 -10 4 -15 -1 -15 -14 0 -13 -7 -20
-20 -20 -26 0 -25 17 2 45 17 17 26 21 35 13 7 -6 13 -15 13 -20z m-2549 -29
c19 -7 52 -28 74 -49 22 -20 61 -51 87 -69 26 -17 75 -64 109 -103 60 -70 159
-212 159 -229 0 -9 -40 -39 -52 -39 -5 0 -8 6 -8 13 0 26 -154 256 -199 295
-99 89 -173 140 -224 156 -31 10 -57 22 -57 27 0 13 70 11 111 -2z m-80 -41
c139 -70 298 -234 381 -395 27 -52 31 -64 19 -75 -11 -11 -15 -10 -25 6 -151
251 -284 383 -430 431 -143 47 -284 28 -416 -55 -36 -22 -73 -43 -82 -47 -10
-3 -18 -10 -18 -17 -1 -6 -16 -21 -35 -33 l-35 -22 20 38 c25 51 92 108 173
149 98 50 148 61 268 59 99 -2 109 -4 180 -39z m2563 23 c9 -14 -4 -41 -19
-41 -21 0 -28 19 -15 35 14 17 26 19 34 6z m1914 -29 c2 -13 -3 -25 -13 -28
-23 -9 -38 10 -30 36 9 27 39 22 43 -8z m-1958 -38 c0 -8 -9 -14 -20 -14 -22
0 -28 26 -7 33 16 6 27 -1 27 -19z m-40 -30 c0 -8 -7 -14 -15 -14 -15 0 -21
21 -9 33 10 9 24 -2 24 -19z m-2494 -28 c127 -63 289 -232 327 -341 42 -122
21 -129 -42 -15 -24 44 -68 106 -97 139 -30 32 -54 63 -54 69 0 15 -97 92
-143 112 -72 32 -176 42 -257 26 -37 -8 -83 -22 -102 -32 -44 -22 -122 -76
-126 -86 -2 -4 -8 -8 -13 -8 -36 0 42 97 103 127 78 39 146 53 241 49 77 -3
97 -8 163 -40z m4154 24 c0 -5 -2 -10 -4 -10 -3 0 -8 5 -11 10 -3 6 -1 10 4
10 6 0 11 -4 11 -10z m-1694 -11 c11 -19 -11 -30 -40 -20 -25 10 -26 9 -16 -9
9 -16 7 -22 -7 -27 -10 -3 -25 -12 -34 -20 -17 -14 -49 -8 -49 9 0 5 14 15 31
22 17 7 29 16 27 20 -4 10 42 35 64 36 9 0 20 -5 24 -11z m1654 -70 c0 -62 -2
-71 -20 -76 -16 -4 -20 -14 -20 -45 0 -31 -4 -41 -20 -45 -15 -4 -20 -14 -20
-38 0 -48 -8 -64 -31 -58 -22 6 -25 -7 -7 -25 10 -10 10 -15 1 -20 -6 -4 -13
-25 -15 -47 -3 -39 -4 -40 -44 -43 l-42 -3 -7 -100 c-6 -88 -9 -99 -26 -99
-12 0 -19 -7 -19 -20 0 -11 -6 -20 -14 -20 -9 0 -17 -15 -21 -39 -5 -28 -11
-38 -23 -37 -13 1 -18 -9 -20 -46 -2 -32 -8 -48 -17 -48 -7 0 -16 6 -19 13 -4
6 -4 -52 -1 -130 5 -152 0 -203 -20 -203 -7 0 -20 -10 -28 -22 l-16 -23 -19
23 -18 23 -12 -26 c-7 -14 -12 -55 -12 -90 0 -37 -4 -65 -10 -65 -5 0 -10 -11
-10 -25 0 -21 -5 -25 -30 -25 -27 0 -30 3 -30 29 0 17 -4 32 -8 35 -10 6 -22
-326 -22 -603 0 -225 -5 -259 -34 -263 -13 -2 -22 -11 -24 -25 -2 -16 -10 -23
-24 -23 -20 0 -21 3 -15 203 4 171 8 207 23 237 21 39 21 51 11 365 -5 167 -3
199 13 263 11 40 17 86 14 101 -4 16 -1 32 5 35 7 4 11 -1 11 -13 0 -36 19
-33 35 6 10 23 15 58 13 91 -2 43 0 53 15 58 9 3 17 10 17 15 0 5 7 9 15 9 8
0 15 5 15 11 0 6 7 9 15 5 8 -3 14 -2 13 2 -1 4 4 18 11 31 10 19 15 21 22 10
6 -9 7 2 3 29 -4 28 -3 42 5 42 6 0 11 9 11 20 0 13 -5 18 -15 14 -11 -5 -15
1 -15 21 0 14 4 24 9 20 5 -3 16 2 24 10 12 11 17 12 20 2 3 -7 6 -6 6 5 1 9
7 19 14 22 6 4 -3 4 -20 1 -25 -3 -33 -1 -33 10 0 12 7 14 26 9 30 -8 44 7 44
46 0 32 36 58 44 32 3 -9 4 -2 2 16 -2 22 3 37 14 45 9 7 23 33 30 59 12 41
18 47 47 53 31 6 32 8 39 65 4 33 10 57 15 55 12 -8 24 17 21 45 -1 23 -1 23
7 5 8 -17 10 -18 10 -2 1 9 7 17 15 17 10 0 16 13 18 38 3 34 5 37 31 34 21
-3 27 1 29 17 0 12 1 27 2 34 1 6 7 16 14 20 6 4 12 19 12 32 0 21 10 32 33
34 4 1 7 -31 7 -70z m-1480 47 c0 -3 -4 -8 -10 -11 -5 -3 -10 -1 -10 4 0 6 5
11 10 11 6 0 10 -2 10 -4z m-310 -82 c0 -12 -7 -15 -25 -12 -21 4 -23 3 -14
-9 8 -9 9 -17 2 -24 -7 -7 -14 -5 -23 6 -11 13 -10 19 5 35 22 24 55 26 55 4z
m1359 -49 c-1 -66 -9 -85 -26 -62 -15 19 -4 127 13 127 10 0 14 -16 13 -65z
m-4032 39 c-3 -3 -12 -4 -19 -1 -8 3 -5 6 6 6 11 1 17 -2 13 -5z m-37 -14 c0
-5 -9 -14 -20 -20 -24 -13 -26 -7 -4 14 18 18 24 20 24 6z m485 -18 c-3 -3
-11 0 -18 7 -9 10 -8 11 6 5 10 -3 15 -9 12 -12z m2160 -12 c6 -10 -29 -50
-44 -50 -20 0 -22 22 -5 41 19 21 39 25 49 9z m140 -30 c3 -5 -1 -10 -9 -10
-9 0 -16 5 -16 10 0 6 4 10 9 10 6 0 13 -4 16 -10z m-205 -33 c0 -7 -10 -18
-21 -25 -18 -12 -24 -11 -38 2 -14 15 -14 18 -1 26 22 14 60 12 60 -3z m-946
-3 c9 -3 16 -12 16 -20 0 -9 11 -14 30 -14 25 0 30 -4 30 -25 0 -21 5 -25 30
-25 22 0 33 -6 41 -23 7 -16 24 -26 52 -33 36 -8 43 -13 47 -39 5 -30 6 -30
78 -33 69 -3 72 -4 72 -27 0 -21 5 -25 28 -25 15 0 45 9 66 21 21 11 45 18 52
15 9 -3 14 1 14 13 0 30 44 42 54 16 4 -10 -3 -20 -19 -27 -14 -6 -25 -17 -25
-25 0 -7 -9 -13 -20 -13 -10 0 -27 -8 -37 -18 -10 -10 -39 -28 -65 -40 -47
-22 -59 -37 -36 -44 7 -3 9 -11 3 -24 -4 -10 -7 -23 -6 -29 2 -5 -1 -7 -4 -3
-4 4 -16 -3 -26 -15 -18 -20 -19 -21 -13 -2 5 19 5 19 -6 2 -17 -27 -19 -64
-5 -84 17 -23 45 -10 45 22 0 20 5 25 25 25 14 0 25 -4 25 -10 0 -19 -42 -90
-51 -84 -5 3 -9 0 -9 -5 0 -11 13 -15 38 -12 15 2 15 1 -3 -42 -8 -19 -12 -37
-8 -40 10 -11 43 13 43 31 1 16 1 16 11 -1 10 -17 5 -65 -11 -97 -25 -49 -33
-81 -34 -128 -1 -52 -18 -78 -40 -65 -5 4 -6 1 0 -8 14 -23 15 -49 1 -49 -8 0
-9 -3 -1 -8 13 -9 13 -112 -1 -112 -5 0 -2 -5 8 -11 9 -5 17 -17 17 -25 0 -8
5 -12 10 -9 15 9 25 -24 11 -38 -9 -9 -14 -8 -21 3 -15 23 -27 -2 -41 -85 -13
-72 -25 -99 -40 -89 -5 3 -9 0 -9 -5 0 -6 5 -11 10 -11 6 0 10 -12 10 -26 0
-23 3 -25 30 -19 l30 7 -2 -47 c-3 -37 -7 -47 -25 -51 -11 -3 -30 -1 -42 5
-18 10 -21 8 -27 -13 -6 -25 -40 -63 -49 -55 -9 10 26 102 45 119 l20 18 -21
5 c-12 3 -18 10 -14 16 3 6 4 11 1 11 -3 0 -17 -18 -30 -39 -18 -28 -35 -41
-58 -46 -18 -4 -37 -10 -43 -13 -5 -4 -25 -8 -44 -9 -19 -1 -37 -7 -41 -12 -3
-6 -21 -12 -40 -13 -34 -3 -35 -2 -38 40 -2 23 -7 42 -13 42 -5 0 -9 -6 -9
-13 0 -19 -43 -54 -59 -49 -10 3 -12 -1 -9 -14 3 -11 -1 -25 -8 -32 -19 -18
-27 -15 -21 8 3 13 0 20 -9 20 -8 0 -14 4 -14 10 0 5 -15 13 -32 18 -28 7 -34
13 -36 40 -3 34 13 43 37 20 10 -11 12 -7 9 16 -2 22 -9 30 -25 31 -12 1 -25
-5 -28 -12 -2 -8 -10 -11 -16 -7 -7 4 -9 3 -5 -4 3 -6 0 -14 -7 -19 -7 -4 -16
-16 -20 -25 -10 -29 -47 -11 -47 24 0 21 -6 31 -19 35 -12 3 -21 15 -23 32 -2
20 -8 26 -28 26 -22 0 -25 5 -28 43 -2 23 -7 42 -13 42 -5 0 -9 8 -10 18 0 10
-3 12 -6 5 -8 -21 -20 -15 -27 12 -4 14 -11 25 -17 25 -6 0 -9 21 -8 53 2 40
0 52 -11 53 -8 1 -21 2 -27 3 -7 0 -13 8 -13 17 0 8 5 12 10 9 6 -4 10 5 8 24
-1 16 -5 29 -8 28 -3 -1 -5 3 -5 8 0 6 3 9 7 8 10 -4 10 41 1 51 -4 3 -8 14
-9 24 -7 69 -16 127 -20 131 -2 2 -4 -3 -4 -11 0 -9 -7 -19 -16 -22 -8 -3 -14
-14 -13 -23 5 -52 -1 -73 -21 -73 -26 0 -26 23 1 113 22 75 133 266 196 337
67 76 91 100 101 100 7 0 12 7 12 15 0 8 14 21 30 30 31 16 36 30 21 54 -11
17 -41 7 -41 -14 0 -9 -9 -15 -25 -15 -15 0 -31 -9 -41 -25 -9 -14 -22 -25
-28 -25 -7 0 -24 -6 -39 -12 -22 -10 -26 -18 -22 -36 4 -18 1 -25 -14 -29 -10
-3 -21 -13 -24 -24 -3 -10 -13 -19 -22 -19 -24 0 -45 -25 -45 -54 0 -18 -6
-25 -22 -28 -15 -2 -25 -13 -31 -34 -5 -16 -18 -34 -30 -40 -13 -5 -23 -20
-25 -36 -2 -14 -10 -32 -18 -38 -8 -8 -14 -30 -14 -57 0 -82 -21 -238 -36
-260 -8 -12 -14 -32 -14 -44 0 -12 -8 -23 -19 -26 -12 -3 -23 -20 -30 -47 -6
-23 -24 -54 -41 -71 -31 -29 -32 -29 -46 -11 -13 18 -14 14 -15 -40 -1 -53 -2
-56 -12 -31 -6 15 -17 27 -25 27 -11 0 -13 14 -9 65 2 35 0 70 -4 77 -6 8 -9
-1 -9 -24 0 -39 -15 -49 -37 -27 -8 8 -7 18 3 37 9 18 10 31 3 44 -5 10 -7 23
-4 28 7 12 -20 42 -29 33 -3 -4 -6 8 -6 25 0 17 5 34 10 37 6 3 10 19 10 36 0
16 5 29 10 29 6 0 10 -9 10 -20 0 -11 5 -20 10 -20 6 0 9 23 9 53 -1 42 -3 46
-8 22 -5 -25 -8 -27 -14 -12 -4 10 -7 28 -7 40 0 19 -3 17 -20 -11 -20 -32
-40 -35 -40 -6 0 8 4 13 9 10 5 -3 12 11 16 32 13 72 26 113 35 107 6 -4 10 1
10 9 0 8 -4 17 -9 20 -10 6 7 105 22 124 6 8 13 9 16 3 4 -6 13 0 20 12 13 20
13 21 -2 8 -15 -11 -17 -11 -17 2 0 17 24 40 33 30 4 -3 7 9 7 28 0 19 5 40
12 47 6 6 9 14 6 17 -10 11 -58 -7 -58 -21 0 -7 -13 -23 -29 -35 -16 -12 -27
-27 -25 -33 5 -14 -33 -39 -46 -31 -17 11 -11 33 15 53 14 11 25 24 25 29 0
15 180 195 222 223 21 14 38 28 38 33 0 4 11 7 25 7 18 0 25 5 25 20 0 13 7
20 20 20 13 0 20 7 20 18 0 14 13 22 50 32 37 10 50 18 50 32 0 10 5 18 10 18
6 0 10 9 10 20 0 19 8 20 263 23 144 1 265 3 269 5 3 1 13 -1 22 -4z m1093
-36 c-3 -7 -5 -2 -5 12 0 14 2 19 5 13 2 -7 2 -19 0 -25z m47 4 c-11 -8 -15
-16 -8 -19 36 -13 46 -31 49 -88 5 -110 3 -102 19 -80 13 18 14 18 24 -2 10
-18 17 -20 46 -13 39 9 59 -6 70 -51 3 -15 14 -29 24 -31 11 -3 21 -18 25 -37
4 -18 13 -31 22 -31 8 0 15 -9 15 -19 0 -29 11 -51 25 -51 14 0 25 -22 25 -50
0 -10 7 -26 15 -34 9 -8 20 -29 26 -45 7 -20 15 -28 25 -24 8 3 14 0 14 -7 0
-6 4 -9 9 -6 10 6 20 -25 22 -64 0 -14 3 -19 6 -12 10 24 23 11 23 -23 0 -25
7 -41 25 -57 14 -12 25 -31 25 -42 0 -12 9 -27 20 -34 12 -7 20 -23 20 -41 0
-15 9 -36 20 -46 11 -10 20 -24 20 -32 0 -7 4 -13 9 -13 5 0 14 -14 21 -30 7
-17 21 -35 30 -40 10 -5 20 -22 23 -38 3 -16 17 -43 31 -60 23 -26 26 -39 26
-108 0 -43 5 -163 11 -268 13 -221 7 -296 -22 -296 -16 0 -19 -7 -19 -44 0
-39 -3 -45 -22 -48 -17 -2 -24 -11 -26 -31 -3 -25 -7 -28 -28 -23 -21 6 -24 3
-24 -24 0 -31 -6 -36 -28 -21 -16 10 -7 117 10 127 6 4 8 -5 3 -25 -4 -18 -3
-31 3 -31 12 0 20 77 10 93 -6 9 -8 8 -8 -3 -1 -8 -6 -4 -11 9 -5 14 -7 31 -5
38 3 7 -6 25 -19 40 -23 26 -24 27 -25 7 0 -13 -8 -24 -20 -27 -15 -4 -20 -14
-20 -36 0 -24 -4 -31 -20 -31 -16 0 -20 -7 -20 -30 0 -23 -5 -30 -20 -31 -11
-1 -26 -2 -32 -3 -18 -1 -10 33 13 62 10 14 19 35 19 48 0 16 6 24 18 25 16 1
16 2 0 6 -10 2 -18 11 -18 19 0 11 -4 12 -19 4 -11 -5 -24 -10 -30 -10 -14 0
-14 33 0 47 8 8 2 13 -21 18 -23 5 -30 11 -25 22 8 22 -4 53 -21 53 -9 0 -14
10 -14 28 0 15 -5 34 -10 42 -8 12 -10 11 -10 -7 0 -16 -6 -23 -20 -23 -20 0
-24 9 -21 42 2 11 -7 20 -23 24 -23 5 -26 12 -27 48 0 37 -1 39 -10 16 -13
-31 -13 -32 -33 -24 -11 4 -16 18 -16 49 0 55 -8 75 -30 75 -9 0 -22 10 -28
23 -8 17 -11 18 -11 5 -1 -31 -21 -20 -21 11 0 20 6 31 18 34 12 3 11 5 -6 6
-15 1 -26 9 -29 21 -3 13 -14 20 -29 20 -16 0 -24 6 -25 18 -1 34 -8 57 -18
60 -5 2 -8 9 -5 16 3 7 -4 32 -16 54 -15 29 -22 61 -23 107 -1 46 -5 65 -14
65 -7 0 -13 -9 -13 -20 0 -21 -19 -28 -21 -7 0 6 -2 21 -4 32 -3 15 -12 141
-15 207 0 4 -8 4 -17 1 -13 -5 -15 -2 -10 11 4 10 4 23 0 29 -11 18 -14 37
-15 87 0 40 -1 43 -14 25 -8 -10 -14 -16 -14 -12 0 3 -11 -5 -25 -19 -14 -14
-30 -22 -35 -19 -13 8 -13 55 -1 55 6 0 11 17 13 38 2 30 7 38 26 40 18 3 22
-1 22 -22 0 -14 4 -27 9 -31 11 -6 16 10 26 73 5 33 12 43 31 48 13 3 24 9 25
13 3 31 11 57 20 68 8 9 8 13 0 13 -6 0 -11 5 -11 11 0 6 7 9 15 5 8 -3 15 -1
15 4 0 6 -7 10 -15 10 -18 0 -21 55 -4 65 6 5 4 12 -8 22 -10 8 -12 12 -5 8
11 -5 17 6 13 28 -1 7 15 11 32 8 4 0 7 4 7 10 0 6 -7 9 -15 5 -11 -4 -15 2
-15 24 0 31 9 37 26 20 14 -14 35 3 38 31 3 35 14 49 33 42 14 -6 14 -8 -3
-21z m-254 1 c10 -9 -27 -23 -52 -20 -16 2 -28 -1 -28 -7 0 -6 -17 -19 -37
-28 -21 -9 -60 -37 -86 -63 -47 -45 -72 -53 -72 -24 0 8 10 18 23 24 12 5 22
14 22 20 0 14 102 86 142 100 29 11 75 10 88 -2z m2947 -25 c-3 -8 -6 -5 -6 6
-1 11 2 17 5 13 3 -3 4 -12 1 -19z m-2878 -85 c7 -13 4 -20 -12 -28 -16 -8
-22 -20 -22 -44 0 -19 -6 -36 -12 -38 -17 -6 -16 12 2 75 17 54 28 63 44 35z
m-1949 -58 c0 -5 -5 -3 -10 5 -5 8 -10 20 -10 25 0 6 5 3 10 -5 5 -8 10 -19
10 -25z m-356 6 c15 -6 5 -11 -40 -19 -111 -22 -191 -92 -250 -216 -37 -79
-83 -224 -85 -271 0 -16 -5 -41 -9 -55 -15 -44 0 162 16 225 25 100 72 191
125 240 60 56 51 58 -16 5 -57 -46 -66 -48 -62 -19 6 34 66 88 116 103 49 16
173 20 205 7z m103 -42 c26 -10 27 -12 8 -19 -11 -5 -36 -9 -55 -10 -89 -2
-164 -65 -222 -185 -53 -112 -61 -168 -55 -385 5 -165 4 -181 -9 -147 -42 118
-43 362 -1 489 14 40 28 85 31 100 9 38 113 142 156 155 47 15 112 15 147 2z
m2243 -90 c-3 -38 -10 -64 -18 -67 -10 -3 -12 13 -11 71 3 65 5 74 18 67 13
-6 15 -21 11 -71z m-2245 41 c-11 -5 -29 -9 -41 -9 -12 -1 -42 -12 -68 -26
-26 -14 -44 -21 -41 -15 14 23 102 58 150 58 l20 1 -20 -9z m25 -49 c0 -4 -20
-16 -45 -25 -25 -10 -64 -36 -88 -59 -86 -84 -119 -202 -119 -422 1 -169 18
-265 68 -377 39 -87 57 -155 44 -163 -5 -3 -14 12 -21 32 -7 21 -27 70 -45
108 -33 70 -66 189 -78 276 -12 86 -7 311 8 368 8 30 12 62 9 70 -4 14 -4 14
6 1 9 -13 11 -13 11 1 0 22 46 108 73 137 34 36 88 61 135 62 23 0 42 -4 42
-9z m2047 -73 c-3 -8 -6 -5 -6 6 -1 11 2 17 5 13 3 -3 4 -12 1 -19z m-354 -38
c-6 -24 -26 -21 -31 3 -2 11 3 17 16 17 15 0 19 -5 15 -20z m-87 -77 c-10 -10
-19 5 -10 18 6 11 8 11 12 0 2 -7 1 -15 -2 -18z m-1446 -33 c0 -4 -10 -18 -23
-32 -13 -14 -31 -41 -41 -62 -9 -20 -21 -36 -26 -36 -17 0 -10 44 10 70 11 14
20 31 20 39 0 8 7 23 17 33 12 14 19 15 30 7 7 -6 13 -15 13 -19z m-333 -119
c-7 -156 -26 -197 -27 -56 0 92 13 175 27 175 3 0 3 -54 0 -119z m1893 68 c-7
-11 -14 -18 -17 -15 -3 3 0 12 7 21 18 21 23 19 10 -6z m-1657 -120 c-1 -19
-9 -39 -20 -47 -10 -7 -17 -18 -15 -23 1 -5 -2 -9 -7 -9 -5 0 -12 -16 -15 -35
-10 -50 -26 -54 -26 -6 0 23 5 41 10 41 6 0 15 11 20 25 5 14 14 25 19 25 5 0
7 9 4 20 -7 26 4 53 20 47 7 -2 11 -18 10 -38z m1844 -11 c-3 -8 -6 -5 -6 6
-1 11 2 17 5 13 3 -3 4 -12 1 -19z m3458 -38 c-7 -12 -42 -12 -70 0 -15 6 -8
9 28 9 30 1 46 -3 42 -9z m-3450 -152 c0 -23 -4 -45 -10 -48 -14 -7 -25 82
-12 98 14 18 22 1 22 -50z m1135 37 c0 -9 -6 -12 -15 -9 -8 4 -12 10 -9 15 8
14 24 10 24 -6z m-2859 -37 c-5 -13 -15 -23 -22 -23 -8 0 -15 10 -17 23 -3 18
1 22 22 22 22 0 24 -3 17 -22z m-204 -20 c-3 -8 -6 -5 -6 6 -1 11 2 17 5 13 3
-3 4 -12 1 -19z m579 -56 c-12 -11 -17 7 -9 34 l8 29 3 -28 c2 -16 1 -31 -2
-35z m3208 11 c3 -16 8 -80 12 -145 6 -102 9 -117 25 -121 18 -5 19 -17 19
-166 0 -130 -3 -161 -14 -161 -7 0 -16 -13 -19 -29 -4 -20 -12 -28 -24 -27
-14 1 -18 -6 -18 -34 0 -28 -4 -35 -20 -35 -13 0 -21 -8 -23 -22 -2 -14 -11
-23 -25 -25 -20 -3 -22 -9 -25 -80 -3 -70 -5 -77 -25 -80 -18 -2 -23 -11 -25
-40 -2 -25 -8 -38 -18 -38 -12 0 -14 -33 -14 -204 0 -125 -4 -206 -10 -208
-10 -3 -35 -783 -25 -799 4 -5 2 -9 -3 -9 -17 0 -22 51 -29 273 l-6 217 -39 0
-38 0 1 51 c2 39 -2 54 -14 61 -17 9 -22 34 -11 62 3 9 11 13 16 10 6 -4 2 5
-7 19 -9 15 -14 31 -10 37 3 5 2 10 -2 10 -10 0 0 121 11 138 3 6 3 13 -2 16
-5 3 -7 35 -5 71 3 47 9 71 23 85 10 10 21 16 23 13 3 -3 3 4 0 16 -5 21 19
55 31 43 4 -3 4 1 0 11 -4 11 -1 17 7 17 9 0 14 12 15 30 1 17 8 38 16 48 13
14 16 74 21 360 5 243 10 349 19 365 7 12 11 29 10 38 -2 9 6 19 18 22 13 3
22 16 26 36 4 17 13 31 20 31 8 0 14 6 14 14 0 8 6 21 13 28 7 7 19 28 26 46
7 17 20 32 27 32 8 0 14 8 14 18 0 41 36 44 44 5z m-645 -20 c10 -19 9 -23 -4
-23 -10 0 -15 9 -15 27 0 29 2 29 19 -4z m-2949 -14 c0 -10 -7 -19 -15 -19
-15 0 -21 31 -9 43 11 10 24 -3 24 -24z m1731 8 c-13 -13 -26 -3 -16 12 3 6
11 8 17 5 6 -4 6 -10 -1 -17z m1348 -105 c-1 -103 -9 -136 -32 -140 -15 -3
-17 9 -17 112 0 101 2 115 18 119 9 2 20 2 25 0 4 -2 7 -43 6 -91z m-102 36
c-3 -7 -5 -2 -5 12 0 14 2 19 5 13 2 -7 2 -19 0 -25z m167 -84 c14 -5 16 -33
16 -211 0 -189 -1 -204 -17 -201 -17 3 -18 -16 -21 -265 -2 -233 -4 -269 -18
-274 -26 -10 -61 -50 -71 -80 -7 -21 -17 -29 -38 -31 -25 -3 -27 -1 -17 11 21
25 30 116 47 460 17 366 20 397 38 397 15 0 41 109 39 163 -1 38 8 44 42 31z
m-3556 -225 c-3 -8 -7 -3 -11 10 -4 17 -3 21 5 13 5 -5 8 -16 6 -23z m2720 -1
c-4 -42 -23 -46 -36 -9 -8 22 -7 31 1 35 30 12 38 5 35 -26z m-2611 -30 c-3
-8 -6 -5 -6 6 -1 11 2 17 5 13 3 -3 4 -12 1 -19z m1113 -79 c0 -14 -27 -10
-33 5 -4 10 0 12 14 9 10 -3 19 -9 19 -14z m640 -60 c0 -10 -4 -19 -10 -19 -5
0 -10 12 -10 26 0 14 4 23 10 19 6 -3 10 -15 10 -26z m-240 -5 c0 -8 -4 -12
-10 -9 -5 3 -10 10 -10 16 0 5 5 9 10 9 6 0 10 -7 10 -16z m179 -30 c2 -42 0
-45 -21 -42 -19 2 -22 8 -20 33 2 23 24 55 37 55 1 0 2 -21 4 -46z m-91 -56
c2 -20 -3 -28 -27 -38 -28 -11 -51 -8 -51 8 0 14 52 63 63 59 7 -2 13 -15 15
-29z m429 -80 c-3 -8 -6 -5 -6 6 -1 11 2 17 5 13 3 -3 4 -12 1 -19z m438 -198
c4 -14 15 -20 35 -20 16 0 28 -5 27 -12 -1 -39 4 -48 28 -48 22 0 25 -4 25
-35 0 -28 4 -35 20 -35 16 0 20 -7 20 -30 0 -25 4 -30 24 -30 22 0 25 -5 31
-53 4 -30 4 -143 1 -253 -3 -109 -9 -331 -12 -491 -5 -243 -8 -293 -20 -293
-18 0 -16 -19 -23 215 l-6 200 -24 3 c-22 4 -23 6 -19 78 3 66 1 74 -14 74
-15 0 -18 9 -18 65 0 45 -4 65 -12 66 -10 0 -10 2 0 6 18 7 16 83 -3 83 -18 0
-19 12 -3 28 20 20 17 50 -4 44 -12 -3 -18 -14 -18 -34 0 -16 -4 -27 -9 -24
-19 12 -31 125 -16 159 5 11 3 17 -7 17 -15 0 -23 45 -11 63 13 22 12 57 -3
57 -8 0 -14 9 -14 20 0 11 -4 20 -10 20 -6 0 -10 37 -10 90 0 82 2 90 19 90
11 0 23 -9 26 -20z m747 -126 c-3 -59 -6 -65 -23 -61 -13 4 -19 0 -19 -11 0
-10 -9 -28 -19 -41 l-19 -24 -11 21 c-6 12 -8 22 -2 22 5 0 12 11 15 25 4 14
11 25 16 25 6 0 10 5 10 12 0 7 7 32 16 55 25 65 40 55 36 -23z m-179 25 c-5
-19 -7 -19 -15 -5 -10 18 -2 39 12 31 4 -3 6 -15 3 -26z m85 -166 c2 -8 -5
-13 -17 -13 -12 0 -21 -5 -21 -12 0 -9 -3 -9 -11 -1 -8 8 -8 15 2 27 16 18 40
17 47 -1z m-78 -47 c0 -3 -4 -8 -10 -11 -5 -3 -10 -1 -10 4 0 6 5 11 10 11 6
0 10 -2 10 -4z m460 -67 c0 -52 -3 -70 -12 -66 -9 2 -12 20 -10 53 7 103 22
113 22 13z m-2701 -119 c1 -127 -4 -160 -25 -160 -11 0 -14 -26 -14 -130 0
-109 -2 -129 -15 -124 -12 5 -13 25 -8 120 4 83 3 114 -5 114 -7 0 -12 11 -12
25 0 18 5 25 20 25 19 0 20 7 20 90 0 104 18 207 31 175 4 -11 8 -72 8 -135z
m1039 2 c2 -58 0 -72 -12 -72 -11 0 -14 -10 -10 -49 3 -35 0 -54 -10 -64 -13
-12 -21 -38 -25 -79 -1 -5 -13 -8 -27 -8 -25 0 -25 1 -19 56 4 30 8 89 8 131
0 52 5 77 14 80 7 3 13 17 14 32 0 23 1 24 9 6 8 -18 9 -17 9 7 1 25 15 39 36
34 6 -1 11 -35 13 -74z m-524 -39 c-5 -97 -7 -103 -35 -103 -23 0 -23 3 -4 55
8 22 14 61 15 86 0 25 3 49 6 52 17 17 23 -11 18 -90z m4923 45 c-3 -8 -6 -5
-6 6 -1 11 2 17 5 13 3 -3 4 -12 1 -19z m-2737 -15 c0 -20 -3 -24 -11 -16 -7
7 -9 19 -6 27 10 24 17 19 17 -11z m2664 -38 c1 -30 -2 -55 -6 -55 -5 0 -8 28
-8 62 0 34 3 58 7 55 4 -4 7 -32 7 -62z m-1457 23 c-3 -7 -5 -2 -5 12 0 14 2
19 5 13 2 -7 2 -19 0 -25z m2603 22 c0 -5 -2 -10 -4 -10 -3 0 -8 5 -11 10 -3
6 -1 10 4 10 6 0 11 -4 11 -10z m-1061 -88 c0 -13 -3 -20 -9 -17 -5 3 -9 27
-9 53 1 42 2 44 9 17 4 -16 8 -40 9 -53z m-4092 36 c-3 -7 -5 -2 -5 12 0 14 2
19 5 13 2 -7 2 -19 0 -25z m4233 -16 c0 -19 -3 -23 -9 -13 -5 7 -11 9 -13 5
-3 -5 -3 -3 -1 4 1 8 3 20 3 28 0 9 5 12 10 9 6 -3 10 -18 10 -33z m1540 -3
c0 -24 -4 -38 -10 -34 -5 3 -10 22 -10 41 0 19 5 34 10 34 6 0 10 -18 10 -41z
m-4640 -4 c0 -14 -4 -25 -10 -25 -5 0 -10 11 -10 25 0 14 5 25 10 25 6 0 10
-11 10 -25z m4019 -12 c0 -34 -1 -36 -11 -16 -6 12 -8 29 -5 37 11 27 17 18
16 -21z m80 -10 c-1 -17 -3 -21 -6 -10 -2 9 -10 17 -16 17 -7 0 -6 4 3 10 20
13 20 13 19 -17z m-8580 -30 c0 -25 -1 -25 -8 -8 -5 11 -7 23 -4 28 8 14 13 7
12 -20z m8656 18 c3 -5 1 -12 -5 -16 -5 -3 -10 1 -10 9 0 18 6 21 15 7z
m-4215 -91 c0 -57 -1 -60 -24 -60 l-24 0 -4 -219 c-3 -204 -7 -245 -25 -228
-9 10 -9 361 0 430 6 40 13 57 23 57 17 0 28 25 33 73 1 4 6 7 11 7 6 0 10
-27 10 -60z m-1990 -97 c0 -99 -3 -143 -10 -133 -5 8 -10 72 -10 141 0 110 3
139 17 139 2 0 3 -66 3 -147z m5403 119 c-19 -12 -12 -52 9 -52 10 0 18 -6 18
-14 0 -12 -4 -12 -30 0 -16 9 -30 20 -30 25 0 5 -8 9 -17 10 -12 1 -10 4 7 9
21 7 22 8 5 9 -17 1 -17 3 -5 11 8 5 24 10 35 10 13 0 16 -3 8 -8z m-73 -22
c0 -11 -4 -20 -9 -20 -5 0 -7 9 -4 20 3 11 7 20 9 20 2 0 4 -9 4 -20z m90 -11
c0 -6 -4 -7 -10 -4 -5 3 -10 11 -10 16 0 6 5 7 10 4 6 -3 10 -11 10 -16z
m-4850 -239 c0 -33 -3 -41 -10 -30 -5 8 -10 35 -10 60 0 33 3 41 10 30 5 -8
10 -35 10 -60z m51 -322 c-2 -145 -5 -256 -7 -248 -5 25 -14 175 -20 348 -6
153 -5 162 12 162 18 0 19 -12 15 -262z m1296 10 c-3 -8 -6 -5 -6 6 -1 11 2
17 5 13 3 -3 4 -12 1 -19z m533 -60 c0 -34 -13 -29 -25 10 -5 16 -2 22 9 22
11 0 16 -10 16 -32z m-1033 -30 c-3 -7 -5 -2 -5 12 0 14 2 19 5 13 2 -7 2 -19
0 -25z m4436 -40 c3 -8 -5 -14 -22 -15 -24 -1 -25 0 -6 13 23 17 22 17 28 2z
m-3855 -91 c3 -76 0 -96 -13 -107 -14 -12 -16 -3 -14 93 3 137 23 147 27 14z
m-4488 -4 c0 -5 -4 -14 -9 -21 -7 -11 -9 -11 -14 1 -3 8 -3 18 0 21 9 8 23 7
23 -1z m80 -23 c0 -21 5 -30 17 -30 14 0 13 -3 -5 -20 -22 -20 -23 -20 -52 -3
-47 27 -36 83 17 83 19 0 23 -5 23 -30z m4910 -62 c0 -51 -5 -100 -10 -108 -5
-8 -10 -13 -10 -10 -1 3 -3 51 -7 108 -4 89 -3 102 11 102 14 0 16 -14 16 -92z
m-4815 -2 c7 3 16 0 20 -6 5 -8 11 -5 21 7 12 17 13 16 14 -9 0 -23 4 -28 25
-28 18 0 23 -4 18 -16 -3 -9 -12 -13 -22 -9 -9 4 -36 9 -61 12 -31 3 -52 12
-69 30 l-23 25 28 30 29 30 3 -36 c2 -24 7 -33 17 -30z m127 -39 c1 -20 6 -37
12 -37 5 0 6 -3 3 -6 -12 -12 -38 18 -32 37 5 13 1 19 -10 19 -9 0 -13 5 -10
10 4 6 11 8 16 5 5 -4 9 -1 9 6 0 28 9 1 12 -34z m9627 -179 c1 -36 -3 -48
-14 -48 -8 0 -15 5 -15 11 0 5 5 7 10 4 17 -10 11 27 -7 47 -13 15 -14 21 -5
27 7 4 12 12 11 17 -4 21 3 27 11 9 5 -11 9 -41 9 -67z m-4951 47 c0 -13 -4
-22 -9 -19 -5 3 -9 14 -9 25 0 10 4 19 9 19 5 0 9 -11 9 -25z m4922 -45 c0 -5
-4 -10 -10 -10 -5 0 -10 5 -10 10 0 6 5 10 10 10 6 0 10 -4 10 -10z m-5501
-202 c-2 -168 -3 -175 -10 -93 -14 153 -11 275 7 275 2 0 3 -82 3 -182z m588
-55 c-2 -16 -4 -5 -4 22 0 28 2 40 4 28 2 -13 2 -35 0 -50z m2903 -40 c0 -12
8 -26 18 -32 15 -9 14 -11 -8 -19 -30 -12 -45 7 -34 41 4 12 7 31 5 42 -1 17
0 17 8 5 6 -8 11 -25 11 -37z m-88 15 c-7 -7 -12 -8 -12 -2 0 14 12 26 19 19
2 -3 -1 -11 -7 -17z m151 9 c7 6 11 -12 8 -31 -5 -27 12 -47 37 -44 22 2 26 8
24 26 -2 12 2 22 8 22 6 0 8 -5 4 -12 -5 -9 -2 -9 9 1 15 11 17 11 17 -2 0 -8
7 -17 15 -21 10 -4 17 4 23 26 10 38 31 48 39 19 7 -26 30 -27 38 -2 5 16 34
37 40 29 1 -2 5 -18 9 -37 6 -32 5 -32 -12 -14 -9 10 -16 17 -15 14 2 -2 -2
-10 -8 -18 -9 -10 -8 -13 1 -13 10 0 10 -3 0 -16 -17 -19 -56 -41 -46 -25 4 6
3 11 -3 11 -5 0 -13 -4 -16 -10 -7 -12 -75 -14 -75 -2 0 5 -16 7 -36 5 -40 -3
-60 -13 -26 -13 11 0 23 -4 26 -8 3 -5 -17 -4 -45 2 -44 9 -68 26 -36 26 7 0
8 3 2 8 -17 12 -17 42 0 42 8 0 15 5 15 10 0 6 -5 9 -12 8 -6 -2 -14 6 -16 17
-4 16 -2 17 10 7 8 -6 18 -9 21 -5z m327 -3 c0 -8 -4 -12 -10 -9 -5 3 -10 10
-10 16 0 5 5 9 10 9 6 0 10 -7 10 -16z m-428 -26 c-9 -9 -12 -7 -12 12 0 19 3
21 12 12 9 -9 9 -15 0 -24z m513 -19 c-2 -29 -15 -54 -15 -30 0 7 -4 10 -10 6
-5 -3 -3 6 5 21 7 15 11 34 8 43 -4 12 -3 13 5 2 5 -7 8 -26 7 -42z m84 11
c20 0 41 12 35 21 -3 5 2 9 10 9 8 0 14 -8 14 -17 0 -10 2 -33 6 -50 7 -37 -8
-45 -30 -15 -13 16 -13 16 -14 0 0 -20 -30 -25 -30 -5 0 9 -2 9 -8 -1 -7 -9
-14 -8 -32 8 -21 19 -22 22 -9 48 19 38 33 45 41 22 4 -11 12 -20 17 -20z
m-154 0 c3 -5 1 -10 -4 -10 -6 0 -11 5 -11 10 0 6 2 10 4 10 3 0 8 -4 11 -10z
m283 -38 c3 -33 -3 -38 -26 -23 -9 5 -11 17 -6 35 9 35 28 28 32 -12z m238
-59 c-3 -24 -3 -31 3 -18 8 19 8 19 19 -2 17 -31 50 -26 45 6 -4 25 -4 25 11
7 9 -11 16 -26 16 -34 0 -7 4 -11 8 -8 4 2 14 1 22 -5 12 -7 10 -9 -8 -9 -13
0 -21 -4 -18 -8 3 -5 -28 -8 -69 -8 -46 1 -71 5 -67 11 3 6 -2 4 -11 -4 -13
-11 -20 -11 -32 -1 -8 6 -19 9 -25 5 -6 -4 -9 -1 -8 6 2 6 -3 14 -10 16 -8 3
-10 -1 -5 -12 5 -15 3 -15 -16 1 -12 11 -34 19 -49 19 -22 0 -27 5 -29 25 l-3
25 10 -24 c8 -18 13 -22 22 -13 8 8 15 9 25 1 14 -12 17 -3 14 34 -1 9 3 17 8
17 6 0 11 -11 11 -24 0 -13 6 -26 14 -29 16 -6 40 16 29 27 -7 7 14 26 30 26
4 0 7 -13 7 -30 0 -16 4 -30 8 -30 15 0 32 24 32 47 0 13 5 23 11 23 7 0 9
-13 5 -37z m-4419 -45 c-2 -13 -4 -3 -4 22 0 25 2 35 4 23 2 -13 2 -33 0 -45z
m4730 -16 c6 -58 33 -75 33 -22 0 23 4 30 20 30 16 0 20 -7 20 -35 0 -45 28
-49 37 -5 11 55 33 29 33 -40 0 -44 8 -70 21 -70 5 0 9 7 9 15 0 23 22 65 31
59 5 -3 9 -23 9 -44 0 -50 18 -100 29 -81 6 9 11 10 15 2 9 -14 -2 -33 -15
-26 -5 4 -9 2 -9 -4 0 -5 -9 -9 -20 -8 -11 1 -20 4 -20 7 0 4 -9 16 -21 28
-11 12 -18 26 -15 30 3 5 -8 9 -23 9 -16 0 -36 7 -45 16 -9 9 -23 14 -30 11
-9 -3 -17 3 -21 15 -4 14 -15 21 -31 21 -14 0 -35 12 -50 29 -14 16 -33 28
-42 26 -15 -2 -51 32 -41 38 2 2 12 9 22 16 15 12 19 11 31 -4 17 -23 32 -13
40 27 9 44 25 25 33 -40z m-141 13 c-2 -7 1 -18 7 -24 8 -8 5 -11 -11 -11 -24
0 -25 3 -16 37 4 13 11 20 16 17 5 -3 7 -12 4 -19z m-3502 -50 c7 -36 29 -47
40 -19 9 23 39 13 46 -15 8 -36 29 -37 41 -2 6 17 15 31 20 31 13 0 29 -36 29
-64 0 -14 4 -26 9 -26 9 0 23 26 25 44 2 24 25 14 31 -13 7 -33 26 -40 47 -18
19 21 46 8 53 -24 7 -33 35 -40 35 -9 0 11 7 23 15 27 20 7 22 5 28 -36 9 -54
41 -67 58 -23 9 24 11 25 20 9 6 -9 7 -22 4 -27 -3 -6 -1 -10 4 -10 6 0 11 -7
11 -15 0 -10 9 -14 25 -13 14 1 25 6 25 10 0 4 5 8 11 8 6 0 9 -9 6 -19 -3
-12 1 -22 10 -25 8 -3 11 -10 8 -16 -4 -6 -11 -8 -16 -5 -5 4 -9 2 -9 -4 0
-11 -115 -6 -153 5 -11 3 -30 7 -43 9 -35 3 -74 33 -74 55 0 26 -32 42 -62 31
-26 -10 -85 -3 -94 10 -3 5 -20 9 -38 9 -18 0 -43 9 -56 20 -12 11 -27 17 -31
14 -5 -3 -9 -1 -9 5 0 6 -6 8 -14 5 -9 -4 -20 6 -31 25 -12 24 -12 31 -3 32 9
0 9 2 2 5 -11 4 -10 24 2 62 6 22 21 5 28 -33z m-5482 -112 c2 -19 8 -27 18
-24 38 9 45 7 50 -13 4 -15 14 -21 35 -21 23 0 30 -6 36 -28 4 -15 16 -35 26
-45 10 -9 14 -14 9 -9 -14 10 -28 9 -21 -3 3 -5 -3 -10 -15 -10 -12 0 -18 5
-15 10 3 6 1 10 -6 10 -6 0 -45 16 -85 36 -67 32 -74 39 -74 65 0 16 5 29 11
29 5 0 7 5 4 10 -4 6 -11 8 -16 5 -5 -4 -9 -1 -9 4 0 6 11 11 24 11 19 0 25
-6 28 -27z m9418 -54 c0 -11 -4 -18 -10 -14 -5 3 -7 12 -3 20 7 21 13 19 13
-6z m-8478 -21 c4 -45 33 -50 42 -8 5 27 8 30 20 18 7 -8 17 -29 21 -46 7 -33
35 -45 35 -15 0 20 28 53 47 53 8 0 13 -11 13 -29 0 -33 9 -61 19 -61 4 0 13
16 20 36 15 42 35 40 39 -5 3 -30 6 -33 33 -29 26 4 29 2 29 -24 0 -21 5 -28
20 -28 11 0 20 5 20 10 0 25 20 6 26 -25 6 -32 9 -35 40 -35 29 0 34 -3 34
-24 0 -17 7 -26 25 -30 14 -4 31 -4 36 0 7 4 10 -10 8 -40 -3 -51 4 -64 24
-47 16 12 28 2 40 -31 7 -20 32 -24 42 -8 10 16 25 1 25 -23 0 -25 45 -53 55
-33 3 8 7 7 11 -1 9 -20 30 -15 47 10 l16 22 7 -22 c7 -25 44 -32 44 -8 0 9 6
12 15 9 8 -4 12 -10 9 -15 -8 -13 59 -7 68 6 5 6 8 3 8 -6 0 -31 29 -30 45 1
9 17 20 30 26 30 8 0 7 -5 -1 -15 -11 -13 -10 -14 4 -9 9 3 16 1 16 -5 0 -7 5
-18 12 -25 15 -15 34 -1 40 30 2 10 8 18 13 17 12 -3 12 -14 2 -64 -7 -35 -8
-36 -53 -35 -32 1 -48 6 -55 19 -11 19 -34 23 -45 5 -5 -8 0 -9 16 -5 17 4 20
3 12 -5 -9 -9 -18 -8 -37 0 -15 7 -31 9 -37 6 -7 -5 -9 0 -6 14 4 12 2 22 -4
22 -5 0 -12 -9 -15 -19 -6 -25 -41 -23 -49 2 -5 17 -8 17 -30 3 -26 -18 -38
-20 -30 -7 7 11 -14 20 -31 13 -7 -2 -10 -9 -6 -16 4 -7 1 -7 -9 1 -8 7 -18
10 -21 6 -4 -3 -13 -1 -20 5 -8 7 -17 9 -20 5 -4 -3 -13 -1 -21 6 -11 9 -17 9
-27 -1 -12 -11 -18 -9 -36 9 -12 13 -20 23 -18 23 10 0 -32 37 -49 43 -15 6
-16 10 -6 22 14 17 7 30 -18 31 -17 1 -32 5 -80 25 -13 5 -26 18 -29 29 -3 12
-19 24 -42 30 -22 6 -40 18 -46 32 -9 20 -20 24 -90 31 -124 12 -145 17 -145
31 0 8 -7 17 -16 20 -14 5 -14 9 -3 24 11 14 11 15 -1 5 -18 -17 -25 -16 -44
3 -9 9 -22 17 -29 18 -23 5 -52 20 -66 33 -7 8 -21 11 -31 8 -11 -3 -20 1 -24
10 -4 11 -2 14 6 9 8 -5 9 -2 5 9 -3 9 -2 19 2 22 5 2 11 -4 14 -15 7 -25 47
-27 48 -2 1 16 2 16 6 0 2 -10 10 -18 16 -17 18 1 54 17 40 18 -17 1 -4 31 12
31 8 0 15 -14 17 -32z m8654 -5 c-4 -18 -3 -23 2 -14 13 19 21 1 15 -32 -5
-27 -22 -38 -24 -14 0 9 -2 9 -6 -1 -3 -9 -9 -7 -21 6 -10 10 -13 12 -8 5 5
-8 6 -16 3 -19 -3 -3 -12 3 -19 15 -7 12 -17 21 -22 21 -4 0 -3 -6 3 -14 17
-20 0 -27 -24 -10 -10 8 -13 14 -7 14 7 0 12 7 12 16 0 12 7 15 26 11 20 -3
27 1 34 19 5 13 17 24 26 24 13 0 15 -6 10 -27z m-3206 -48 c0 -34 35 -35 44
0 7 29 33 24 38 -8 4 -27 22 -32 43 -11 17 17 18 17 31 -1 7 -10 11 -21 9 -26
-12 -18 19 -21 33 -3 10 13 16 15 19 6 3 -6 9 -10 14 -6 5 3 9 -11 9 -30 0
-51 28 -49 32 2 l3 37 16 -45 c11 -32 22 -46 37 -48 14 -2 22 2 22 12 0 33 20
24 30 -13 10 -37 13 -40 40 -36 24 3 30 0 30 -16 0 -22 28 -26 36 -4 9 24 22
18 26 -12 l4 -28 14 28 c15 31 33 31 38 -1 4 -27 23 -28 40 -2 16 26 30 25 34
-2 2 -13 11 -24 21 -26 13 -3 17 3 17 24 0 19 3 25 10 18 10 -10 13 -40 8 -84
-2 -19 -8 -24 -25 -22 -12 2 -24 -2 -28 -8 -10 -16 -42 -12 -84 10 -27 13 -49
17 -74 13 -35 -5 -36 -4 -47 36 -8 30 -16 41 -30 41 -10 0 -20 -6 -23 -12 -3
-10 -7 -10 -20 1 -9 7 -15 17 -12 21 2 4 -12 8 -33 8 -20 1 -52 5 -69 8 -28 5
-33 3 -33 -13 0 -11 -7 -20 -15 -20 -8 0 -12 4 -9 9 3 4 -8 11 -25 14 -27 6
-30 11 -33 48 -3 46 8 42 -130 45 -43 0 -77 4 -77 9 4 21 -2 32 -13 26 -9 -5
-9 -2 1 9 12 15 11 17 -10 18 -13 0 -18 3 -11 6 6 2 12 11 12 19 0 8 5 14 10
14 6 0 10 -4 10 -10 0 -5 9 -10 20 -10 13 0 20 7 20 20 0 11 7 20 15 20 9 0
15 -9 15 -25z m3250 5 c0 -5 -4 -10 -10 -10 -5 0 -10 5 -10 10 0 6 5 10 10 10
6 0 10 -4 10 -10z m-5895 -211 c5 -33 12 -49 22 -49 8 0 12 -4 8 -9 -3 -5 -2
-12 3 -15 4 -2 14 15 21 40 20 68 50 51 51 -28 0 -18 6 -28 15 -29 8 -1 20 -2
27 -3 15 -1 23 -26 8 -26 -10 0 -10 -4 0 -15 10 -13 9 -15 -9 -15 -12 0 -19 4
-16 10 3 6 -1 17 -10 26 -15 15 -15 14 -9 -10 8 -32 2 -33 -29 -2 -17 17 -32
23 -46 19 -12 -3 -27 -1 -34 5 -14 11 -55 6 -75 -10 -11 -10 -16 -8 -24 6 -8
15 -12 16 -19 5 -11 -18 -11 58 0 86 7 18 8 17 14 -7 6 -24 39 -43 51 -30 3 3
6 29 6 58 0 46 2 52 19 47 15 -4 21 -17 26 -54z m3757 -61 c2 -17 9 -22 25
-21 14 2 24 -4 28 -18 5 -14 10 -18 17 -11 15 15 48 2 48 -19 0 -25 38 -46 46
-24 13 34 64 6 52 -28 -2 -5 8 -15 22 -23 l25 -15 -27 4 c-21 3 -25 1 -20 -12
5 -13 2 -12 -13 2 -15 15 -27 17 -63 12 -30 -4 -42 -3 -37 4 3 6 -1 11 -10 11
-10 0 -13 5 -9 12 5 7 2 9 -8 5 -13 -4 -15 0 -11 24 2 17 0 29 -6 29 -6 0 -11
-10 -12 -22 0 -19 -3 -18 -12 9 -7 17 -16 35 -21 40 -5 4 -7 3 -3 -2 3 -6 -3
-16 -14 -23 -12 -8 -19 -9 -19 -1 0 5 -4 7 -10 4 -5 -3 -10 1 -10 9 0 9 -4 16
-9 16 -5 0 -11 6 -14 13 -4 10 3 12 23 9 25 -4 28 -1 23 17 -3 12 -1 21 5 21
6 0 12 -10 14 -22z m613 2 c3 -5 1 -10 -4 -10 -6 0 -11 5 -11 10 0 6 2 10 4
10 3 0 8 -4 11 -10z m175 -51 c0 -22 5 -29 19 -29 10 0 21 7 25 15 8 22 36 18
36 -4 0 -31 24 -30 43 2 20 32 33 27 39 -13 3 -25 6 -25 50 -13 18 5 22 0 32
-49 7 -32 21 -37 29 -9 7 27 46 16 49 -13 1 -23 1 -58 -1 -67 0 -4 -19 -3 -41
1 -22 4 -40 6 -40 3 0 -6 -54 30 -72 48 -13 13 -43 19 -117 24 -74 6 -101 11
-105 22 -4 8 -13 13 -21 9 -8 -3 -17 -1 -20 4 -4 6 -23 10 -45 10 -41 0 -50
11 -50 61 0 36 26 40 40 5 7 -18 14 -23 30 -19 11 3 23 9 26 14 10 16 24 9 24
-11 0 -30 19 -24 26 8 9 38 13 42 29 35 9 -3 15 -18 15 -34z m-4202 -23 c4
-33 35 -32 40 2 2 12 10 22 18 22 8 0 14 -6 13 -12 -1 -7 2 -28 6 -46 6 -26
12 -32 29 -30 14 2 20 9 18 21 -2 10 3 17 13 17 11 0 15 -12 15 -50 0 -43 3
-50 19 -50 13 0 21 9 26 30 6 28 21 47 30 38 2 -2 5 -16 7 -31 4 -25 21 -46
38 -47 3 0 5 19 5 42 1 23 6 43 13 46 8 2 12 -12 12 -48 0 -30 4 -49 9 -45 6
3 15 -4 21 -15 9 -16 8 -22 -5 -26 -8 -3 -15 -17 -15 -31 0 -20 -4 -24 -17
-18 -10 4 -42 9 -72 12 -41 5 -55 10 -59 25 -2 10 -8 18 -13 18 -5 0 -9 7 -9
15 0 9 -6 12 -15 9 -8 -3 -21 0 -29 8 -44 42 -82 66 -119 75 -69 16 -70 16
-62 3 5 -9 4 -11 -4 -6 -6 4 -8 12 -5 18 4 6 0 14 -7 20 -11 7 -9 8 6 6 15 -2
19 3 20 22 0 17 6 25 17 25 9 0 20 4 24 8 14 14 29 1 32 -27z m-141 4 c-5 -31
-17 -36 -17 -7 0 15 4 27 10 27 5 0 9 -9 7 -20z m-53 -42 c-3 -4 -9 -8 -15 -8
-5 0 -9 4 -9 8 0 5 7 9 15 9 8 0 12 -4 9 -9z m3896 -37 c0 -17 -5 -33 -10 -36
-6 -4 -9 8 -8 29 4 43 18 48 18 7z m35 -28 c-7 -17 -8 -17 -15 2 -9 24 -2 41
12 27 6 -6 7 -19 3 -29z m-5749 -30 c16 -36 17 -43 5 -43 -5 0 -11 9 -14 21
-3 12 -10 18 -17 14 -8 -5 -10 3 -7 26 7 45 8 47 14 29 2 -8 11 -29 19 -47z
m6592 38 c17 -10 25 -91 9 -91 -20 0 -40 17 -33 28 3 6 2 13 -2 16 -10 6 -4
56 7 56 3 0 12 -4 19 -9z m-3530 -41 c3 -30 2 -31 -12 -17 -19 19 -22 61 -3
55 6 -3 13 -19 15 -38z m2770 17 c5 -23 -20 -22 -35 1 -9 16 -8 18 11 17 11
-1 22 -9 24 -18z m-5803 -6 c-3 -5 -1 -12 4 -15 5 -4 12 -2 16 4 10 16 28 11
21 -6 -4 -12 -2 -15 9 -11 8 4 17 2 20 -3 3 -4 -1 -11 -7 -13 -8 -4 -7 -6 4
-6 9 -1 19 -7 22 -13 2 -7 4 -4 4 7 -3 50 2 65 21 65 15 0 21 -8 23 -32 3 -31
5 -33 40 -32 35 1 37 -1 43 -35 6 -35 8 -37 41 -33 33 4 34 3 34 -29 0 -19 4
-29 8 -23 5 9 11 8 20 -2 7 -8 9 -14 5 -15 -4 0 -18 -2 -30 -3 -13 -2 -21 -1
-19 2 3 2 -1 10 -7 17 -9 10 -15 10 -26 1 -11 -8 -15 -8 -18 2 -3 6 -10 12
-16 12 -18 1 -52 32 -71 65 -10 17 -15 23 -12 13 4 -14 2 -15 -22 -2 -15 7
-34 11 -43 9 -22 -7 -83 50 -75 70 3 8 8 15 11 15 4 0 4 -4 0 -9z m3105 -32
c0 -10 7 -19 15 -19 8 0 15 9 15 20 0 11 7 20 15 20 10 0 15 -10 15 -30 0 -41
25 -39 40 3 11 31 12 31 26 13 7 -11 14 -28 14 -37 0 -38 28 -31 47 11 l11 25
11 -27 c10 -27 19 -68 20 -100 1 -28 21 -21 21 8 0 32 18 66 31 59 5 -4 9 -21
9 -38 0 -51 13 -63 38 -36 25 26 29 20 36 -51 2 -25 5 -48 5 -52 2 -18 19 -6
25 17 8 33 36 33 36 1 0 -31 20 -44 32 -22 11 20 28 12 28 -14 0 -14 8 -20 33
-22 29 -3 32 -6 35 -40 4 -42 16 -49 33 -17 l11 21 16 -24 c22 -32 34 -39 59
-33 17 4 22 0 25 -17 2 -18 10 -23 35 -23 41 -1 42 -2 47 -57 4 -46 4 -47 -24
-46 -16 1 -27 5 -24 9 3 5 -8 11 -23 14 -48 11 -73 24 -73 40 0 8 -7 15 -15
15 -8 0 -15 -5 -15 -11 0 -8 -4 -9 -13 0 -8 6 -17 8 -20 4 -4 -3 -7 1 -7 10 0
9 -7 17 -16 17 -9 0 -30 10 -47 22 -17 12 -27 16 -22 7 5 -9 1 -8 -12 4 -11 9
-25 17 -31 17 -7 0 -12 7 -12 15 0 20 -46 38 -82 32 -16 -2 -28 0 -28 5 0 5
-5 6 -10 3 -6 -3 -13 2 -17 12 -7 18 -15 29 -41 58 -7 8 -11 17 -10 20 6 11
-52 62 -88 77 -58 23 -108 38 -130 38 -10 0 -30 9 -43 19 -22 17 -23 21 -12
48 7 16 11 34 10 39 -3 18 1 25 11 19 6 -3 10 -15 10 -26z m3540 -11 c0 -16
-3 -19 -11 -11 -6 6 -8 16 -5 22 11 17 16 13 16 -11z m-4153 -14 c-9 -9 -28 6
-21 18 4 6 10 6 17 -1 6 -6 8 -13 4 -17z m-133 0 c9 -22 8 -24 -9 -18 -8 4
-15 12 -15 20 0 19 16 18 24 -2z m204 -40 c4 -33 17 -44 45 -38 17 3 19 -2 15
-39 l-3 -42 33 3 c20 3 32 0 32 -7 0 -7 5 -9 10 -6 6 3 10 1 10 -4 0 -6 -5
-11 -11 -11 -5 0 -7 -4 -4 -10 12 -19 -5 -31 -28 -19 -12 7 -24 15 -27 18 -3
3 -18 13 -33 21 -16 8 -24 16 -17 18 20 7 -23 31 -55 32 -26 0 -31 4 -34 28
-8 68 -7 76 19 83 37 10 45 6 48 -27z m-138 1 c0 -8 -2 -15 -4 -15 -2 0 -6 7
-10 15 -3 8 -1 15 4 15 6 0 10 -7 10 -15z m-2046 -107 c15 -10 48 0 63 20 11
13 14 11 19 -16 8 -38 21 -41 33 -8 5 13 16 26 25 29 12 5 17 -4 22 -43 8 -58
34 -71 34 -17 0 17 5 39 10 47 9 13 11 13 20 0 9 -14 15 -58 11 -87 -1 -8 5
-10 16 -7 11 4 14 3 7 -3 -6 -4 -10 -17 -8 -28 3 -20 2 -20 -12 -1 -7 11 -17
17 -20 13 -4 -4 -12 -2 -19 3 -8 7 -12 5 -12 -5 0 -8 4 -15 9 -15 4 0 8 -4 8
-9 0 -11 -26 -8 -67 8 -19 7 -36 24 -43 42 -8 19 -18 28 -26 25 -8 -3 -14 -1
-14 5 0 6 -4 7 -10 4 -5 -3 -10 0 -10 7 0 9 -3 9 -10 -2 -8 -13 -10 -12 -10 3
0 9 -4 17 -10 17 -5 0 -7 -7 -3 -16 5 -14 3 -14 -15 -3 -29 18 -34 36 -20 62
12 21 12 21 16 2 2 -11 9 -23 16 -27z m2366 -42 c-13 -42 -30 -47 -30 -10 0
35 19 69 32 56 7 -7 6 -22 -2 -46z m105 15 c5 -9 10 -19 10 -23 0 -5 3 -8 8
-8 4 0 12 0 18 0 5 0 8 4 5 8 -9 14 10 33 27 26 10 -4 18 -18 18 -38 2 -35 5
-59 8 -66 8 -17 8 -40 0 -40 -5 0 -9 5 -9 10 0 6 -3 9 -7 9 -23 -4 -43 2 -38
11 3 6 -5 10 -19 10 -14 0 -28 5 -31 10 -3 6 -15 10 -26 10 -11 0 -17 4 -14
10 3 5 -6 12 -20 16 -14 3 -25 10 -25 16 0 5 4 7 9 3 14 -8 40 23 36 44 -3 15
1 18 18 13 12 -3 26 -12 32 -21z m-78 -67 c-3 -3 -12 -4 -19 -1 -8 3 -5 6 6 6
11 1 17 -2 13 -5z m1163 -211 c0 -26 -25 -22 -33 6 -3 11 2 17 14 17 13 0 19
-8 19 -23z"/>
<path d="M8680 9805 c0 -8 9 -15 20 -15 11 0 20 7 20 15 0 8 -9 15 -20 15 -11
0 -20 -7 -20 -15z"/>
<path d="M2090 9185 c0 -23 3 -25 50 -25 47 0 50 2 50 25 0 23 -3 25 -50 25
-47 0 -50 -2 -50 -25z"/>
<path d="M1540 9045 c0 -12 15 -15 75 -15 60 0 75 3 75 15 0 12 -15 15 -75 15
-60 0 -75 -3 -75 -15z"/>
<path d="M1460 8840 c0 -15 7 -20 25 -20 18 0 25 5 25 20 0 15 -7 20 -25 20
-18 0 -25 -5 -25 -20z"/>
<path d="M2270 8535 c0 -21 5 -25 30 -25 25 0 30 4 30 25 0 21 -5 25 -30 25
-25 0 -30 -4 -30 -25z"/>
<path d="M1990 8630 c0 -23 4 -30 20 -30 11 0 20 -7 20 -16 0 -8 5 -12 10 -9
6 3 10 24 10 46 0 37 -2 39 -30 39 -27 0 -30 -3 -30 -30z"/>
<path d="M6730 8098 c0 -18 18 -34 28 -24 3 4 -2 14 -11 23 -16 16 -17 16 -17
1z"/>
<path d="M7370 8022 c0 -12 19 -26 26 -19 2 2 -2 10 -11 17 -9 8 -15 8 -15 2z"/>
<path d="M7184 7886 c3 -21 24 -42 33 -33 4 4 -3 17 -14 29 -18 17 -21 18 -19
4z"/>
<path d="M6442 7820 c9 -14 24 -26 34 -27 13 -2 14 -1 4 3 -8 4 -23 16 -34 28
l-18 21 14 -25z"/>
<path d="M6980 7696 c0 -2 7 -9 15 -16 9 -7 15 -8 15 -2 0 5 -7 12 -15 16 -8
3 -15 4 -15 2z"/>
<path d="M6030 7399 c0 -5 5 -7 10 -4 6 3 10 8 10 11 0 2 -4 4 -10 4 -5 0 -10
-5 -10 -11z"/>
<path d="M6625 7030 c-3 -5 -1 -10 6 -10 6 0 9 -8 6 -19 -2 -11 3 -25 14 -35
19 -15 19 -15 13 11 -11 53 -15 63 -24 63 -5 0 -12 -4 -15 -10z"/>
<path d="M6650 6921 c0 -10 19 -25 25 -20 1 2 -3 10 -11 17 -8 7 -14 8 -14 3z"/>
<path d="M6765 6810 c-3 -5 -1 -10 4 -10 6 0 11 5 11 10 0 6 -2 10 -4 10 -3 0
-8 -4 -11 -10z"/>
<path d="M6400 6553 c0 -6 7 -26 16 -44 10 -23 13 -26 9 -9 -3 14 -7 30 -9 37
-3 17 -16 29 -16 16z"/>
<path d="M6447 6510 c-11 -31 -15 -60 -7 -60 16 0 27 26 20 50 -5 18 -9 21
-13 10z"/>
<path d="M6465 6440 c-3 -5 1 -22 9 -37 l15 -28 1 38 c0 35 -12 48 -25 27z"/>
<path d="M6511 6373 c-1 -6 -4 -19 -8 -29 -4 -11 -3 -15 4 -11 6 4 14 1 16 -5
4 -9 5 -8 6 2 0 18 -17 60 -18 43z"/>
<path d="M6705 5680 c3 -5 8 -10 11 -10 2 0 4 5 4 10 0 6 -5 10 -11 10 -5 0
-7 -4 -4 -10z"/>
<path d="M6775 5530 c-3 -5 -1 -10 4 -10 6 0 11 5 11 10 0 6 -2 10 -4 10 -3 0
-8 -4 -11 -10z"/>
<path d="M6745 5520 c3 -5 8 -10 11 -10 2 0 4 5 4 10 0 6 -5 10 -11 10 -5 0
-7 -4 -4 -10z"/>
<path d="M6755 5460 c-3 -5 3 -10 14 -10 11 0 34 -12 53 -26 24 -19 23 -17 -6
10 -42 38 -51 42 -61 26z"/>
<path d="M6736 5384 c-14 -15 -38 -51 -52 -80 -21 -44 -26 -64 -22 -105 5 -52
33 -102 61 -107 22 -5 90 60 117 112 l24 43 -19 59 c-17 54 -52 104 -73 104
-5 0 -21 -12 -36 -26z m21 -186 c-3 -7 -5 -2 -5 12 0 14 2 19 5 13 2 -7 2 -19
0 -25z"/>
<path d="M6520 7246 c0 -2 7 -7 16 -10 8 -3 12 -2 9 4 -6 10 -25 14 -25 6z"/>
<path d="M5885 6070 c-3 -5 -1 -10 4 -10 6 0 11 5 11 10 0 6 -2 10 -4 10 -3 0
-8 -4 -11 -10z"/>
<path d="M5395 5520 c3 -5 8 -10 11 -10 2 0 4 5 4 10 0 6 -5 10 -11 10 -5 0
-7 -4 -4 -10z"/>
<path d="M5050 4990 c-11 -7 -12 -12 -4 -20 8 -8 13 -6 17 9 3 12 4 21 4 21
-1 0 -9 -5 -17 -10z"/>
<path d="M1840 5352 c0 -5 7 -9 15 -9 8 0 15 4 15 9 0 4 -7 8 -15 8 -8 0 -15
-4 -15 -8z"/>
<path d="M1818 5323 c-24 -6 -23 -18 2 -20 11 -1 20 4 20 13 0 8 -1 13 -2 13
-2 -1 -11 -3 -20 -6z"/>
<path d="M1742 4640 c0 -14 2 -19 5 -12 2 6 2 18 0 25 -3 6 -5 1 -5 -13z"/>
<path d="M2903 4290 c-7 -10 -9 -21 -4 -24 5 -3 6 -17 3 -31 -2 -14 0 -25 5
-25 5 0 10 23 11 50 1 28 1 50 -1 50 -1 0 -8 -9 -14 -20z"/>
<path d="M3808 5583 c7 -3 16 -2 19 1 4 3 -2 6 -13 5 -11 0 -14 -3 -6 -6z"/>
<path d="M3720 5275 c1 -26 16 -32 26 -10 10 20 9 23 -7 22 -11 -1 -19 -6 -19
-12z"/>
<path d="M318 2158 c5 -5 16 -8 23 -6 8 3 3 7 -10 11 -17 4 -21 3 -13 -5z"/>
<path d="M7840 819 c0 -5 5 -7 10 -4 6 3 10 8 10 11 0 2 -4 4 -10 4 -5 0 -10
-5 -10 -11z"/>
<path d="M4330 774 c0 -10 7 -14 22 -12 32 5 35 28 4 28 -17 0 -26 -5 -26 -16z"/>
<path d="M2510 620 c-9 -6 -10 -10 -3 -10 6 0 15 5 18 10 8 12 4 12 -15 0z"/>
<path d="M5655 530 c-9 -14 4 -52 16 -45 12 8 12 55 0 55 -6 0 -13 -5 -16 -10z"/>
<path d="M5264 9846 l6 -96 -25 0 c-20 0 -25 -5 -25 -24 0 -19 6 -25 28 -28
23 -3 27 -8 30 -40 3 -35 6 -38 33 -38 26 0 29 -3 29 -34 0 -32 3 -35 33 -38
29 -3 32 -6 35 -40 3 -32 7 -37 30 -40 22 -2 28 -9 30 -35 2 -23 8 -33 21 -33
26 0 41 -21 41 -57 0 -31 2 -33 35 -33 33 0 35 -2 35 -35 0 -34 1 -35 40 -35
38 0 40 -2 40 -29 0 -26 4 -30 33 -33 28 -3 32 -7 35 -35 3 -27 7 -33 27 -33
17 0 26 -7 30 -22 5 -20 13 -23 65 -26 58 -3 60 -2 60 22 0 23 -4 26 -35 27
-58 2 -60 3 -63 29 -7 66 -10 70 -52 70 -37 0 -40 2 -50 40 -8 31 -17 41 -38
46 -47 10 -49 12 -55 43 -5 22 -12 31 -27 31 -24 0 -29 19 -32 125 -3 79 -3
80 -30 83 -19 2 -28 9 -28 22 0 10 -7 20 -15 24 -9 3 -15 18 -15 39 0 19 -3
49 -6 66 -6 29 -9 31 -50 31 -42 0 -44 1 -44 29 0 49 -9 61 -45 61 -33 0 -34
2 -37 43 -3 36 -7 43 -27 45 l-24 4 7 -96z"/>
<path d="M5097 9604 c-4 -4 -7 -20 -7 -35 0 -24 6 -30 33 -37 28 -7 33 -13 37
-48 4 -34 9 -39 32 -42 22 -3 29 -10 34 -37 5 -29 10 -33 35 -33 39 1 60 -18
53 -48 -5 -19 -2 -24 13 -24 26 0 53 -30 53 -59 0 -12 8 -24 18 -27 64 -20 82
-34 82 -64 0 -28 3 -30 35 -30 30 0 35 -3 35 -24 0 -27 15 -42 25 -26 12 20
35 10 35 -15 0 -20 5 -25 24 -25 18 0 25 -8 32 -32 8 -26 16 -34 37 -36 21 -3
27 -9 27 -28 0 -13 9 -29 20 -36 36 -23 24 -38 -29 -38 -40 0 -50 -4 -54 -19
-6 -23 16 -31 93 -31 86 0 100 -7 100 -45 0 -30 3 -33 44 -44 25 -6 59 -11 75
-11 31 0 31 0 31 54 l0 54 -39 7 c-33 5 -41 11 -46 35 -6 26 -11 29 -53 32
-45 3 -47 5 -50 35 -3 29 -7 32 -50 40 -45 8 -47 9 -50 46 -3 34 -6 37 -33 37
-25 0 -29 4 -29 26 0 23 -3 26 -25 22 -19 -4 -25 -1 -25 13 0 35 -12 49 -41
49 -25 0 -30 5 -35 29 -5 23 -12 31 -33 33 -21 2 -27 9 -29 36 -3 29 -6 32
-37 32 -31 0 -35 3 -40 34 -6 30 -10 34 -38 32 -30 -1 -32 1 -35 36 -3 35 -5
37 -40 40 -36 3 -37 4 -40 46 -3 39 -5 42 -33 42 -27 0 -29 2 -29 40 0 36 -3
40 -24 40 -13 0 -31 2 -38 5 -8 3 -17 2 -21 -1z"/>
<path d="M7500 9426 l0 -66 31 0 c25 0 33 -6 42 -30 8 -20 19 -30 37 -32 21
-3 25 -9 28 -39 3 -33 7 -38 37 -43 27 -5 34 -12 37 -33 3 -31 26 -40 101 -42
40 -1 47 2 47 19 0 16 -10 20 -61 26 l-61 7 6 38 6 39 -35 0 c-36 0 -38 3 -49
51 -3 16 -15 29 -27 32 -20 5 -21 11 -16 51 l7 45 -27 -10 c-26 -10 -43 -1
-55 31 -2 4 -13 11 -25 14 -22 7 -23 5 -23 -58z"/>
<path d="M5810 9322 l0 -64 62 4 63 3 5 -30 c4 -26 10 -30 43 -33 32 -3 39 -7
43 -32 5 -21 13 -29 35 -34 24 -4 29 -11 29 -34 0 -25 5 -30 31 -36 17 -3 53
-6 79 -6 39 0 49 -4 53 -20 3 -14 14 -20 31 -20 25 0 26 2 26 60 0 59 0 60
-28 60 -15 0 -33 -5 -39 -11 -6 -6 -26 -9 -44 -7 -29 2 -35 7 -37 30 -3 25 -8
28 -53 34 -45 6 -51 10 -56 35 -5 25 -10 28 -47 31 -38 3 -41 5 -44 36 -3 29
-6 32 -39 32 -29 0 -36 5 -46 29 -8 21 -19 30 -39 33 l-28 5 0 -65z"/>
<path d="M7780 9334 c0 -17 6 -24 20 -24 13 0 20 7 20 19 0 10 -9 21 -20 24
-16 4 -20 0 -20 -19z"/>
<path d="M6124 9255 c-10 -24 5 -35 47 -35 35 0 39 3 39 25 0 23 -4 25 -40 25
-26 0 -43 -5 -46 -15z"/>
<path d="M7903 9113 c-26 -3 -44 -10 -47 -20 -4 -9 -5 -18 -3 -20 10 -9 105
-15 110 -6 7 11 -3 54 -12 51 -3 -1 -25 -3 -48 -5z"/>
<path d="M6000 8991 c0 -27 3 -28 138 -35 l112 -6 0 25 c0 25 -1 25 -87 25
-49 0 -105 3 -125 6 -34 6 -38 4 -38 -15z"/>
<path d="M5426 8981 c-4 -5 -2 -12 3 -15 5 -4 12 -2 15 3 4 5 2 12 -3 15 -5 4
-12 2 -15 -3z"/>
<path d="M5542 8909 c3 -22 8 -24 66 -27 57 -3 62 -1 62 18 0 13 -7 20 -19 20
-10 0 -39 3 -65 6 -46 7 -48 6 -44 -17z"/>
<path d="M7850 8873 c0 -7 7 -13 15 -13 8 0 15 6 15 13 0 8 -7 14 -15 14 -8 0
-15 -6 -15 -14z"/>
<path d="M8000 8860 c0 -18 7 -20 60 -20 53 0 60 2 60 20 0 18 -7 20 -60 20
-53 0 -60 -2 -60 -20z"/>
<path d="M8982 8753 c2 -14 15 -19 56 -21 47 -3 52 -1 52 17 0 19 -6 21 -56
21 -47 0 -55 -3 -52 -17z"/>
<path d="M5172 8733 c2 -22 8 -28 28 -28 20 0 26 6 28 28 3 24 0 27 -28 27
-28 0 -31 -3 -28 -27z"/>
<path d="M8814 8633 c-16 -3 -20 -9 -17 -24 5 -17 15 -19 124 -19 l119 0 0 25
0 25 -102 -1 c-57 -1 -113 -4 -124 -6z"/>
<path d="M8610 8610 c0 -18 7 -20 65 -20 49 0 65 3 65 14 0 17 -31 26 -87 26
-36 0 -43 -3 -43 -20z"/>
<path d="M9302 8618 c-23 -23 -13 -38 26 -38 39 0 62 14 62 37 0 17 -71 18
-88 1z"/>
<path d="M8390 8600 c0 -17 7 -20 44 -20 52 0 68 16 31 30 -44 17 -75 13 -75
-10z"/>
<path d="M8320 8520 c0 -14 7 -20 23 -21 12 0 112 -1 222 -2 184 -2 200 -3
197 -19 -2 -13 4 -18 18 -18 17 0 20 4 15 20 -6 18 -2 20 49 20 49 0 56 2 56
20 0 20 -7 20 -290 20 -283 0 -290 0 -290 -20z"/>
<path d="M8974 8506 c-4 -9 -3 -20 1 -24 3 -4 83 -8 176 -10 165 -3 169 -3
169 17 0 20 -6 21 -93 21 -52 0 -128 3 -170 6 -66 6 -77 5 -83 -10z"/>
<path d="M9473 8513 c-115 -3 -123 -5 -123 -23 0 -18 7 -20 90 -20 l90 0 0
-30 0 -31 -291 1 c-193 1 -295 -2 -302 -9 -17 -17 -47 -13 -54 7 -13 35 -39
41 -48 12 -6 -18 -15 -20 -86 -20 -64 0 -79 3 -79 15 0 12 -17 15 -94 15 -89
0 -94 -1 -89 -20 5 -18 14 -20 85 -20 71 0 80 -2 85 -20 5 -17 14 -20 64 -20
56 0 59 -1 59 -25 0 -20 5 -25 25 -25 18 0 25 5 25 18 0 25 6 30 34 25 13 -3
29 -16 35 -30 17 -37 56 -28 56 12 l1 30 167 3 167 2 0 -30 c0 -30 0 -30 55
-30 54 0 55 1 49 25 l-6 25 106 0 106 0 0 35 0 35 66 0 c62 0 65 1 62 23 -3
19 -10 23 -58 27 -48 4 -55 8 -58 28 -2 12 -6 21 -10 20 -4 -1 -62 -4 -129 -5z"/>
<path d="M3598 8408 c-2 -19 -11 -24 -50 -28 -54 -7 -61 -11 -52 -34 5 -13 21
-16 90 -16 83 0 84 0 84 25 0 24 3 25 55 25 52 0 55 1 55 25 0 25 -1 25 -89
25 -85 0 -90 -1 -93 -22z"/>
<path d="M8290 8410 c0 -18 7 -20 70 -20 63 0 70 2 70 20 0 18 -7 20 -70 20
-63 0 -70 -2 -70 -20z"/>
<path d="M3853 8393 c-38 -4 -43 -7 -43 -29 l0 -24 245 0 245 0 0 30 0 30
-202 -2 c-112 -1 -222 -3 -245 -5z"/>
<path d="M9780 8366 c0 -14 21 -26 46 -26 8 0 14 9 14 20 0 16 -7 20 -30 20
-19 0 -30 -5 -30 -14z"/>
<path d="M9967 8273 c-4 -3 -2 -12 4 -20 8 -9 37 -13 95 -13 77 0 84 2 84 20
0 18 -7 20 -88 20 -49 0 -92 -3 -95 -7z"/>
<path d="M9764 8263 c-7 -5 -13 -17 -15 -28 -4 -19 -14 -20 -314 -25 -239 -4
-310 -8 -309 -17 1 -7 2 -17 3 -23 0 -7 177 -10 506 -10 498 0 505 0 505 20 0
19 -7 20 -117 20 -145 0 -161 4 -165 39 -3 23 -8 26 -43 29 -22 1 -45 -1 -51
-5z"/>
<path d="M10218 8184 c2 -13 8 -24 13 -24 14 0 10 37 -4 43 -10 4 -13 -2 -9
-19z"/>
<path d="M9635 8100 l-600 -5 0 -25 0 -25 603 -3 602 -2 0 35 c0 19 -1 34 -2
33 -2 -2 -273 -5 -603 -8z"/>
</g>
</svg>
